<?xml version="1.0" encoding="UTF-8" standalone="no"?>
<!-- Uploaded to: SVG Repo, www.svgrepo.com, Generator: SVG Repo Mixer Tools -->

<svg
   fill="#000000"
   width="655.89246"
   height="666.84814"
   viewBox="0 0 19.676774 20.005444"
   id="at"
   data-name="Flat Color"
   class="icon flat-color"
   version="1.1"
   sodipodi:docname="at.svg"
   xmlns:inkscape="http://www.inkscape.org/namespaces/inkscape"
   xmlns:sodipodi="http://sodipodi.sourceforge.net/DTD/sodipodi-0.dtd"
   xmlns="http://www.w3.org/2000/svg"
   xmlns:svg="http://www.w3.org/2000/svg">
<defs>
<filter
    id="shadowy"
    x="-0.2"
    y="-0.2"
    width="1.4"
    height="1.4">
<feDropShadow
      dx="0"
      dy="0.2"
      stdDeviation="0.15"
      flood-color="rgba(0,0,0,0.7)" />
<feDropShadow
      dx="0"
      dy="0.4"
      stdDeviation="0.65"
      flood-color="rgba(0,0,0,0.2)" />
<feDropShadow
      dx="0"
      dy="0.9"
      stdDeviation="1.15"
      flood-color="rgba(0,0,0,0.2)" />
</filter>
</defs>
  <defs
     id="defs1" />
  <sodipodi:namedview
     id="namedview1"
     pagecolor="#ffffff"
     bordercolor="#000000"
     borderopacity="0.25"
     inkscape:showpageshadow="2"
     inkscape:pageopacity="0.0"
     inkscape:pagecheckerboard="0"
     inkscape:deskcolor="#d1d1d1" />
  <path
     filter="url(#shadowy)"
     id="primary"
     d="m 9.6754436,20.005444 a 10.005444,10.005444 0 1 1 0.6600004,-20.00000043 10.18,10.18 0 0 1 9.34,10.31000043 v 2.19 a 3.5,3.5 0 0 1 -6.75,1.3 5,5 0 1 1 0.07,-7.5300004 1,1 0 0 1 0.68,-0.27 1,1 0 0 1 1,1 v 5.5000004 a 1.5,1.5 0 0 0 3,0 v -2.19 a 8.18,8.18 0 0 0 -7.47,-8.3100004 8,8 0 0 0 -8.5300004,8.0000004 8,8 0 0 0 8,8 7.67,7.67 0 0 0 2.6600004,-0.46 1,1 0 0 1 0.68,1.88 9.9,9.9 0 0 1 -3.3400004,0.58 z m 0,-13.0000004 A 3,3 0 1 0 12.675444,10.005444 3,3 0 0 0 9.6754436,7.0054436 Z"
     style="fill:#ffffff"
     inkscape:export-filename="primary.svg"
     inkscape:export-xdpi="96.021873"
     inkscape:export-ydpi="96.021873" />
</svg>
