<?xml version="1.0" encoding="UTF-8" standalone="no"?><svg xmlns="http://www.w3.org/2000/svg" viewBox="195 365 670 634"><path fill="rgba(0,0,0,1)" d="M241 969h-1 1m-4 0h-1l-1-1 2 1m5-1h-1l1-1m20-32v7l-1 1v1l-1 2-1 1 1-1v-1h-3l-1-1-1-1-1 1v4h-1v4l1 1h-1v1h-1l-1 1-1 1-1 2v1l-1 1-1 1-1 1-1 1 1-2 1-1h-2v1l-1 1-1 1-2 2h-1v1l-1-1v-4l1-3 1-2v-1h1v1l1 1h3v-2l-1-1v-1h-1l-1-1-1-1v-6l1-1v-1l1-1 1-1h2l1-1h2l1-1 2-1h2l2-1h1l1-1h1l1-1h1v-1m-55 1h-1m10-1h-1l-2 1h1l1-1h1m3-2h-1v1l1-2m278-3v2l-1 2v1-5m-276-71v9l1 1h3l1 1v2l-1 2-1 2h-1l-1 1h-2v-1h-1v5l-1 1v4l-1 4v6l-1 3v20l1 2v2l1 1v2l1 1v1l-1 1v1l-1 2v1h-5l-1 1h-3l-1-1v-1l-1-1-1-1h-1v-1h-1 2v-3l-1-1h-1v-1h-1l-1-1v1-1l1-1v-10l1 1v1h1v-1h1v-2l1-1v-1l1-2v-2l1-3v-7l-1-1-1-1-1-1h-1v-4l-1-2-1-1v-5l1-1v-4h-1v-1h1v1h7v-1l1-1v-1l1-2 1-1v-1l1-1v-2l1-1v-3h1v-1h2l2-1m46 71-1 1-1 2v1-2l1-1 2-3v-1m-35 6h1l1-1h1-1m-12 0h1l1 1-1-1h-2 1m53-32h1l1 1v3l-1 2-1 2h-1l-1 2v2h1l1-1h1-1l-1 1-1 1v2l-1 2v4l-1 1v1h-4l-1-1v-6h1l1-2 1-2 1-1v-2l-1 1-1 1h-1l-1 2-1 1v1l-2 4v2l-2 5-1 2-1 1-1 2h-1l-2 1h-1l-1-1h-1v-3l1-1 1-1 2-2 1-2 1-1v-1l1-1v-3l1-3 1-1 1-1 1-1 1-1 2-2h1l2-2v-2l1-1 1-1 2-1v-1h1m-23-11v1h-1v3l-1 1-1 2v6l1 1 1 1v3l-1 2v1l-2 5v4l-1 1v2h-1l-1 4-1 1-1 1v1l-1 1-1 1-1 1h-1v-1h-1l-1-1v-3l1-1v-2l1-1 1-3 1-1v-4l1-1v-2l1-1 1-2v-2l1-1v-4l1-1 1-4v-3l1-1 1-2 1-1v-1h1m2-34h1v1l-1 2v1l-1 2v1l-1 2-1 1-2 4-1 3v2l-1 3-1 1v3l-3 10-1 5v3l-2 5v2l-1 4-1 2v3l-1 2-1 2v2l-1 2v1l-1 2v1l-1 1v1l-1 1v1h-1l-1 1h-2l-1-1h-1v-1l-1-1v-14l1-2v-6l1-3v-6l1-3v-2l1-3v-4l1-1v-3l1-2v-9l-1-1-1-1v-3l1-1v-2l1-2h1v-1h2l3-1h2l1-1h1v7h-1v1l-1 1v2l-1 2v1l-1 1v2l-1 1v1l-1 4v3l-1 3v3l-1 1v1l-1 1v5h1v-1l1-1v-1l1-2 1-2 1-3v-2l1-1 1-5v-5l1-2v-3l1-1v-1l1-1v-2l1-1 1-1 2-2v-2l1-1v-2l1-1h3m238 52v2l1 1 1 1 1 1 1 2 1 1v2l1 2 1 4 1 1 1 3v2l-1 1h-4l-1-1h-1l-2-2-1-1-2-2v-1l-1-1v-2l1-3v-2h1l1-2v-1l1-2v-4m-287 20v1h1v1h-1v-2m222-97h5l1 1 1 1h1v1l1 1h3l1 1 1 1v1l2 2 1 1v2l1 1v4h-1v1h-1l-1 1-1 1-2 1-1 1h-3v2l1 1 1 2 1 1 2 1 2 1 4 1 2 1h12l1 1h1l1 1h1l1-1h1l1-2 2-3 1-1h1v-1 1l1 1 2 1 3 2 2 1 1 1 1 1 1 1 1 2 1 1v2l1 1v2l1 1 1 2h1v1h1v2l-1 1-1 2-1 1-1 2-1 1 1-2v-1l-1-1v-2l-1-1v-1h-1v-1h1v-1h2v-2l-1-1-2-1-1-1-1-1h-1l-1-1h-3l-1-1h-2l-2-1h-3l-1 1h-2v2h1v1l1 2 1 2 2 2 1 1 1 1h1v1h4v1h1v2l1 2v1l-1 1h-4l-1-1-3-1-1-1h-1v-1h-1v-1l-1-1h-3l-1-1h-1l-1-1h-1v-1l-2-1h-4l-1-1v1h-2l-1 1-3 2-2-2-1-3-1-1v-3l-1-1v-1l-1-1-1-1h-1l-1-1h-1l-1-1-2-1-1-1h-2l-1 1-1 1-2 2-1 2-1 2-1 1v-3l1-8-3-2-1-1-2-1h-1l-1-1h-3l-1 1h-1v2l-1 1-1 1v1l-1 1-1 1-1 1-2 2-3 3-5 4-2 1-3 2-1 1-3 1-1 1-2 1v1h-2v1-1h-5l-2 1h-1l-2 1-1 1-1 1-1 1h1-1l-1 1h-1l-3 3-1 1-2 2h-2v1h-4l-3 1h-5v1h-1l-1 1-1 1v1l1-1h1l1-1h3-2l-1 1-5 2-2 1-2 2-1 1-1 1-1 1v1-2h-1v1l-1 2v2h1v-1h1v3h-1v1l-1 1-2 1h-1l-1 1-1 1-1 1v1l-1 1v4l-1 1h-3l-1-1h-5l-1-2v-1h-1l-1-3h-1v-2l-1-3-1-1-1-2-2-2-1-1-1-1-1-1-2-1v-1l-2-1-1-1-1-1h-1 1l1 1h1l1 1v-1l-1-2-1-1h-2l-1 1h-2l-1 1-2 1-1 1h-1l-2-1v-3l1-1 1-1h2v-1l2-1 1-1 1-2 1-1 2-2 1-1h1l1-1 1-1h2l2 1 2-1h1l2-1h1l2-1 1-1 2-1 1-1h1l1-1-1-2h1v-1l1-1 1-1 2-1 1-1 3-2h1l1-1v1h1l1-1 1-1 1-1h1l2-2 1-1 1-1h6l2 1 4 2 3 1h6l2-1 1-1 2-1 1-1h1l2-3 2-2 1-1 1-1 1-1 1-1 1-1v-1l1-1 1-2 1-1 2-3 1-1v-3l1-2v-1h1v-1h4l1 1 2 1v1l2 2h1l1 1 1-1h3l1 1 3 2 2 2 2 3 1 1v3l1 1 1 1h2l2-1h1v-4l-1-1-1-1v-1l-1-1-1-1-2-2-1-1-7-8 2-1 3-1h2v1h3l1 1 1 2 1 1 2 3h1v1h2v1l1 1h1v-1l1-1v-1l-1-1v-1l-1-1v-1h1v-1l2-2 1-2v-1l1-1v-1h2m52 72h1l1 2v1l-1 1v1l-1 2v1l-2 3-1 3v5l-1 1-1 1h-1l-2 1h-11l-1-1h-2v-7l1-1 2 1 2 1h1l1-1 1-1h1l2-2h1v-5h3v-1h1l2-2 1-1 1-1 1-1h1v-1m-213 5v5l-2 1v2h-2v-4l1-1 1-1v-1l1-1h1m153 4-1-1m-1-4v2l1 1v1-1l-1-1v-3m-123-1-2 1-2 2-2 2 1-1h1l2-2 1-1v-1l1-1h1m196-4 1 2v2l1 4v1l-1-4v-3l-1-1v-2m-72 1v2-2m-209-3v1l-1 1v2-2l1-1v-1m148 1h-1l-2 1-4 1 3-1 3-1h1m130-2 2 2-2-2m-2-3 2 3h-1l-1-2h-1v-2m-62-17v5l-1 2v6l-1 2v3-3l1-2v-3l1-6v-4m-50 12v1-1h1m178-16v4l1 1v1l-1 1v1l-1 1h-3l-1-1-1-1 1 1 1 1h2l-1-1v-1h-1l-2-3v-1h-1v-1h1v-1l1-1 1-1h2l2-1m1-3h1v1h-1v1-3m-10-2h-7l-2 1h-2 2l2-1h6m1 0h1-1m-124-5h-1v1h1l1 1 1 1h2v-1l-1-1-1-1h-1m54-2v1l-1 1 1-1v-1l1-1M270 742v5l-1 1v2l-1 2v2l-1 1-1 3v1l-2 6-2 3-3 8-1 3-1 1v3l-1 1-1 4v2l-1 1v1h1l1-1 1-1 1-1 1-2 1-1h2v3l-1 1v1l-1 1v2l-1 2-1 1-1 3v1l-1 3-1 2-1 4-1 1-1 4-1 2-1 4-1 3-1 4-1 3v1l-1 2-1 2-1 1-1 1h-2l-2-1v1h-1v1l-1 1v1l-1 3v4h-1v1h-1l-1 1h-5l-6 1-1-4-1-3v-2l1-1v-1l1-1v-1l2-3h1v-2l1-1 1-2 1-2 1-2 1-1 1-1 1 1v1l1 1h1v-1l1-1v-1l2-5 1-3v-2l1-3 1-2v-2l1-2 1-1v-1l1-2 1-1v-1l2-4v-2l2-4 1-2v-1l1-3 1-1v-2l1-1 2-5 1-2 1-2v-2l1-1 1-3 1-1 1-3 1-2 2-4 1-1 1-4 1-2 1-1v-1l1-1v-1h1v-1h1v-1m198 108 1-1m-202-36v1l-1 1v2l-1 1v3l-1 2-1 3-1 2-2 4v2l-2 3v2l-1 1v1l-1 1v1h-1v2l-1 1h-1v-2l1-1v-2l1-2v-1l1-3 1-2 1-3 1-2 1-3 1-2 1-3 1-1 1-2v-2h1v-1l1-1m-5-4v1l-1 2v2l-1 1v3l-1 1-1 4-1 3-1 2-1 3v1l-1 3v1l-1 3v1l-1 2-1 1v1h-1v1h-1v-1l-1-1v-4l1-1v-1h1v-2l1-2v-1l1-2 1-1 1-3v-1l2-6 1-2v-1l1-2v-1l1-1 1-1v-1l1-1m182 28h2l3 1h2l1 1v3l-2 1h-5v-1h-1v-1l-1-3-1-1h1M260 729v4h-1v3l-1 3v6l1 1v1l-1 1v2l-1 1-1 4-1 2v2l-1 3-1 3-1 3v3h-1v1h-2v6l-1 2v1l-1 2v2l-2 2-1 2-4 8-1 2-1 1-1 2v1l-2 1-1 2v1l-3 3-1 2-3 4-1 2h-1v1h-1l-1 1v1l-1 1-1 2v1l-1 1-1 2h-1l-2 3-1 1-1 1h-1l-1 1h-2v-1h1v-1l1-1v-1l1-1v-1l2-2v-2l1-1v-4l1-2h1l1-1 1-1v-1l1-2 1-2v-4h-2l1-1 1-1v-1h1v-1h-2l-1 1-2 2h1l1-1v-1l1-1h1l1-1 1-1 2-3 1-1 2-3 1-2v-2l1-1 1-2 2-3h1l1-1v-1l1-1 3-4v1l1 1h1v-1h1v-5l-2 2v-1l2-2 3-4 1-1 2-4 2-5v-3l1-1v-2h-1l1-1h1v-1l1-1v-2l-1-1-1-1v1h-1l-1 1-1 1v1h-1v1-1l1-1 1-1 1-2h1l1-2 1-1 1-3 3-5v-1l1-2 1-1 1-3v-1m177 36v1h1v3l-1 1v1l-1 3v2l-2 4-1 2-2 4v2l-1 2-1 3v1h-2v2l1 1h1l1 1h1l1 1h1l4 2 3 2 1 1v1h1v1l1 1-1 1-1 2v3h1v2l1 1 1 2 1 1h1v-2l1-1 1-1v-1h1v1l1-1h2l1-1h2v-1h2v1l1 1 1-1 1-1h1l1 1h1l1 1 1 1 2 1 3 3 2 1 1 1 1 1 1 1v1l1 1h1v2h-2l-2-1h-1l-1-1-1-1-1-1h-1v-1h-1l-1 1h-6l-1-1v-1l-1-1v-1l-1-1h-2v1h1v2h1l1 2v1l1 1v9l-1 1-1-1h-2v-1h-1l-1-1h-2l-2-2h-2l-3-2-1-1-12-5h-8l-7 1-1 1h-3l-2 2h-4l-1-1v-2l1-1v-1l1-1 1-1 1-2 1-1 2-2 1-1v-1l2-4 1-2v-3l1-2v-5l-1-1h1v-1h1l1 1h4v-1h-1v-3l1-1v-2l1-2 1-1 2-3 1-2 1-1 1-2v-1l1-1v-1l1-1v-1l1-4 1-1 1-1v-1h1m-66 50h1l2 1v1l3 2 1 1h5l2 1h2l2 1h1v1h1l1 1 1 1h1l1 1 1 1v1l-1 1-1 1h-1l-2 1h-2v-1l-1-1-2-1h-1l-2-1h-6l-1-1h-2l-3-2-1-1-2-1-2-1-1-1v-1l-1-1h1v-1h1v-1h1l1-1h3m-156 0-1 2-2 2v2l-2 3v1l-1 2v-1l1-3 3-5 1-1 1-2m184-12h1v1l1 1v4l-1 3-1 1v1h-6v-3h1l1-3v-1l1-3h1v-1l1-1m32 3h-1v1l-1 1v2l1 1v1h2l1-1 1-1v-5h-2m-2-4h-1v2h2v-2h-1m-142-23 1 1v10l-1 3v4h-1l-1-6v-6l1-2v-4h1m-45-12h1-1m1 0v-1m-1 0v1m7-9-1 1v1l-2 2 2-2 1-1v-1m238-17-1 2v1h1v2l-1 1v1l-1 1v1l-2 2-1 1-1 1-1-1-1-1v-3l-1-1h1v-1l1-1 3-2 1-1 2-1v-1h1m58-194 1 1 1 2 1 1 1 3h1v1h1v3h2l1-1v-1l1-1v-4h1v-1h1v1h7l1 1 1 1 1 1 1 2 1 1h1v1h1l1 1 1 1 3 2 1 1h2l1 1 1 1h1l1 2 1 1 1 2h1l1 4 1 2v1l1 4v2h1l1 1v3l1 1 1-1v6l1 2v19l-1 3-1 5v3l-1 5-1 3-2 4-1 3-2 4-1 2-3 4-1 2-3 4-5 5h-1l-1 1-1 1-1 1-1 1-1 1v2h-1v2l-1 2-1 3v2l-2 6v1l-1 3-1 2-1 1v1l-1 1-1 1-1 2-2 3-1 2-3 3-2 2-3 3-2 2-3 3-1 1-3 3h-1l-1 1-1 1h-2l-1-1 1-4v-4l-1-1h-1 1l1-1 1-1v-1h-4v1h-1v1l-1 2-1 1-2 2-1 1-2 3-1 1-4 4-2 3v1l-2 2-1 1v1h-1l-2 3-1 2h-1l-2 2h-1l-1 1h-1l-1 1h-1l-1 1-1 1-1 1-3 2-1-2v-3h1v-3l1-1 1-3 2-2 2-3 1-1 4-4 3-4 1-1 2-3 1-2 2-3 1-1 1-2 1-2v-1l2-3 1-1 3-4 1-2v-3h1v-1l1-2 1-1 1-2 1-1 1-1 2-4 1-2 4-6-2-3-1-1h-1l-1-1-1 1-1 1v4h-1v4l-1 1v2l-1 1v2h-4l-1 1-1 1v1l-1 1v1l-2 3-1 1v1l-1 2h-1l-1 2-2 2-1 1h-1v1l-1-1h-1l-1-2-1-1v-4l1-2v-1l1-2 1-1v-1h1l1-1 1-1v-1l1-2v-3l1-1v-25l1-1 1-1v-9l1-1v3l1 1v5h1v1h1l1 1h1l1 1v1l1 1v2l1 4v1l1-1h1v-3l1-1v-2l1-1 1-4v-31l-1-2 1-1h1l3-1h1v-1l1-2v-10l-1-2v-2l1-1v-2h1v-1l1-1 1-1h1l1 1 2 1v-17h5v-4h-6v-4l1-2 1-1 1-1v1h1v-8h2l1-1v-2l-1-1v-1l-2-1v-2h2M247 733v1l-1 2h-1l-1 1v1h-1 1v-1h1l1-2 1-1 1-2m47-76-4 6-1 2-1 1-1 2-2 2v2l-1 1-1 2v1l-1 2-1 2v1l-1 2v2l-2 3v1l-1 3-1 1v2l-1 1-1 1-1 1-1 1v1l-2 2-2 2-1 1-4 5-1 2-3 3-2 2v1l-2 1v1l-1 1-2 2-1 1-1 1-3 3-1 2-1 1v1l-1 2-1 1 1-3 2-4 4-8 1-2 3-4 1-3 3-4 1-2 3-4 2-2 3-5 2-2 3-5 7-8 1-2 3-4 2-2 2-4 1-2 3-3 2-4 1-2v-1m-42 71 1-1 1-2 2-1 2-3 1-1-1 1-2 2-4 5-1 1-1 2-2 2 2-2m264-9-1 1-2 3h-1v1l-1 1v1h-1v1-1h1v-1l1-1v-1h1l2-3 1-1 2-3m-250-5 1 1v1l1 1 1 1-1 2-1 2v1l-2 1-2 1v1l-1-1 1-1h-1v2h-1l2-4 1-1v-2l1-1v-2l1-1v-1m222-22 1 1v2l1 1-1 1v1l-1 1h-1l-1 1-2 1-1 1h-1v2l-1 1v2h-1l-1 2v1l-1 1v1l-1 1-1 1v1h-1l-1-1v-1h-1l1-1v-2l1-1 3-3 1-2 1-2 2-2v-1l1-2h1l1-2 1-2 1-1h1m-199-19 1 2v6l-1 1v1h-1l-1 1-1 1v1l-1 2v1l-1 2-1 1v1l-1 1-1 1v-2l1-1v-2l1-1v-1l1-4 1-2 1-4 1-2v-2l1-1m246-44h-1v2l-1 1v3h-1v6l-1 4v10l-1 1v6h1l1-1 1-1v-1l2-3 1-1h1v-1l1-1v-1h-1v-1l-1-2-1-1v-1l-1-2 1-2v-1l1-4v-9h-1m-237 23-2 4 1-1 1-2 1-1m0-1 1-1m3-4-1 2h-1l-1 1 1-1h1l1-2v-1m235-25v1h-1v4l1-1 1-1v-2l-1-1m13-39-1 1v3l-1 1v5l1 2 1 1 1 1 2 2v1h1l1 1v-1l1-1v-10l-1-2-1-1-2-2v-1l-2-1m36-15 1 2 1 3 1 2 1 3v2l-1-4-1-2-1-4-1-1-1-4m-40-67 1 1h2l1 1 2 2 2 1h1l1 2 1 1 1 1 1 1v1l1 1v3h-1v1h-2v2l-1 1-1 1v1l-2 1-1 1h-4l-1-1-1-1v-17l-1-3v-1h1m55-67h2v1l-1 1-2 1-2 1h-1l-4 1-1 1h-1v1h-3v1h-1l-1 1-1 1-2 1-1 1h-2v-1h-2l-1-1-1-1h-1v-1h-1v-4h1v-1h3l2-1h1v-1l1-1h1l1 1h3l2-1h11m-3-20h6v1h2l1 1h1v1l-1 1h-2l-1-1h-5l-3-1h-2l-1-1h-1l1-1h4m-11-22 2 1h1l1 1v2h-1l-1 1-1 1v1l-1 1-1 1h-1l-2 1h-3l-1-1-1-1v-2h1l1-1h1v-1h-1v-3h1l1-1h4m10 3v1h1v1h-3l-1-1v-1h1m-61 484h4l1 1-1-1h-10 4M242 760v-1l1-1v-1l1-1v-1l1-2 1-1v1l-2 3-1 1v1l-1 1v1Z"/><path fill="rgba(92,0,67,1)" d="M251 927v1-2l1-1-1 1m11-26 1 1-1 1v1l-1 2v1h4l1-1h-1l-2 2-1 1-1 1-1 1-1 1-1 3v2-3l-1-1h-1l-1 1-1 1h-1l-3 2-1 1h-1l-1 1-1 1-3 3-1 1-1 2 1-1 1-1 1-4h1v-2l1-1v-4l2-5-1 2v3l1 1v-1h1l1-1 2-1v-1h1v-1h1v-5h2l1-1h1l1-1 2-1h1m-23 14v2l-1 1-1 3 1-3 1-1v-2m181-2h1-1m-216-22 1 1 1 1 1 1v7l-1 3v2l-1 2v1l-1 1v2h-1v1h-1 1v-1l1-2v-1l2-3v-4l-1-1-1-1v-6h-1v-3m266 21 1-2m-54 2v-1h-1m-156-8h-1l-1 1v1l-1 1-1 1v4h2v-2l2-1v-5m-58 4v4-7m269 6 2-3m-61-3v1l1 2v1-1l-1-1v-1l-1-1v-1m55 2v-1 1h-2 1m-198 1v-1m-17-15v1l-1 1v5l1 1h1l1 1v3l-1 1-1 1v2-4l-1-1-1-1v-6l1-2 1-1v-1m19 13v1-1m143-4v1l-1 1v1-1l1-2v-1m60-5v1l1 1 1 1v4-1h-1v-1 1h-1l-1 1-1 1 1-1v-7h1m-58 1-1 1v1-1l1-2m-165-6v1l-1 1-1 2 1-2 1-1v-1h1m172-26v5l-1 2-1 1-1 2h-1v2h1v1l1 2v1l-1 1-1 1h-1v-1l-1 1v1-3l1-2v-6l1-1 1-2 1-2 2-2v-1m-196 8v-1m207-4 1 1 1 1v1-1l-1-1-1-1m-208-6h1v3l-1 2h-1l-1 1-1 1h-1v-7h-1l-2 1v-1h5m-9 6 1-1m212-2h1-1l-2-1h-1 2m9-12-1 2v2l1 1h1l1 1 1 1 2 1 1 1 4 1 2 1h4-8l-2-1-4-1-2-1-2-1-1-1-1-2-1-1v-2h3l1-1 2-1m-206 4h-1 1m4 0h-3 3v-1m2-1h1v-2 2m187-24 1 1h1v1h4v1h1l1 1h1v-1l2-1h1l1 1v3l1 1v1h1l1 1 2 1h1l2 1 2 1 1 1h1-1l-3-1h-4l1 1v2-1h-1l-1 1v3-3l-1-1v-2l-1-1-2-2v-1l-1-1-1-1h-3l-1-1v-1h-1l-1-1-1-1h-8l1-1 1-1h1m22 17v1h2-2l-1-1m-29 0h1-1l-1-1m39 0h-1v1-2m-217-21h1v6h1v-1 2l-1 1v1h-1l-1-1v-1l-1-1-1 1-1 1-1 2-1 2-1 2-1 1v2h-1l-2 3v1l-1 1v1-2l1-1 1-2v-4l1-1v-1l1-1 1-1v-1l1-1 1-1 1-1v-1l1-2 1-1v-1h1v-1h1m171 10v3h3v1l1 1 1 1 3 1h1v-1h1-1v1l1 1v1l-1-1h-1l-1 1h-1l1 1v1h-1v-1h-1l-2-3-1-1-1-2-1-1h-3v-1h-2l-3 1 3-1 1-1h2v-1h1m-149-54-2 5-1 1v2l-1 1-1 3v1l-1 2-2 4v2l-2 4v1l-1 1v1l1-2v-3l1-2-1-1h-1v1h-1v1l-1 2-2 3-1 1-3 4-1 1v1l-1 1v2l-1 1-1 2-1 2-1 1-2 3-1 1-2 3v1l-2 2-1 1-1 1-1 1v-1 1h-1l-1 1h-1l-1 1-1 1-3 3-1 1h-2l-1 1v-3h1l1-3 2-2v-1l1-1 1-1v-1h-1v-4h1v-2h1l2-3 1-2 1-1v-2l1-1v-2l1-2 1-2v-1l1-1h1v-1h-1 1v1h-1v1l-1 1-1 1h2v4l-1 2-1 2v1l-1 1-1 1h-1l-1 2v4l-1 1v2l-2 2v1l-1 1v1l-1 1v1h-1v1h2l1-1h1l1-1 1-1 2-3h1l1-2 1-1v-1l1-2 1-1v-1l1-1h1v-1h1l1-2 3-4 1-2 3-3v-1l1-2 2-1v-1l1-2 1-1 1-2 4-8 1-2 2-2v-2l1-2v-1l1-2v-2 6l2-3 1-2 1-1 1-1v-1m215 44v1h1l1 1 1 1 1 1h1l-3-1h-5l-2-1h-1l-1-1h5l1-1m-66-16v6l-1 1v1l-1 1v1h-1l-1 1h-3l-1 1h-1l-1 1-1 1v3l1 1 1 1-1-1-1-1h-1v-1h-1l-2-1h-2l-2-1h-5v-1l1 1h8l1-1h1v-1l1-1 1-1 1-3 1-1v-1l1-2v2h-1v3h6v-1l1-1 1-3v-4m70 13 3 3 1 1-1-1-1-1-2-1-2-2m-229-4-1 2-1 3v2h-1l1-3 1-2 1-2m221-1h2v1h1l1 1h1-1l-1-1h-1l-1-1h-1l-1 1-1 1-1-1v-1h-2 1l2-1h2m-7 2-1 1 1-1h1m-23-9h1v5l-1 1-1 1h-2v-1l-1-1v-2l1-1v-1h1l1-1m-209 2h-1l-1 1-2 2 2-2 1-1h1m176-4-1 1v1h-1v2-2h1v-2h1m1 0 1 1v1-1h-1l-1-1m36-3 4 2 2 2-2-2-4-2m-4 1v2h-2v-2h1m-139-42v30l-1 3v7h-1v1h-1l-1-1-1-1v-8l1 6h1v-4l1-3v-10l-1-1h-1v1l1-3v-7l1-2v-4l1-1v-3h1m142 31h-1l1 1h4v4l-1 1h-1l-1 1h-2l-1-1h-1v2h2v1h1l1 1-1-1h-1l-1-1h-1l-1-1v-2h2v-1l1-3 1-2m-21 6 1 1h1l-1 1h-4v1h-2v-2h1l1-1h2m-153-8v1-1m1-3v1l-1 1v-1l1-1 1-3m178-6v2l-2 4-1 2 1-2 2-4v-2l1-2m-195 7v2h-1v1h-1l-1-1v-2l1-1 2-2m6 1v-1m2 0h-1 1v-1m5-1v1-1m-4-2 1-1m22-62 1 1v9h-1v2h-1l-1 2-1 1v1h-1l-1 3-1 1-1 1-1 1v1h-1l-1-1h-1l-2 1v1l-1 2v3l1 2v10h-1v1l-1 1v2l-1 1v1l-1 1v1l-1 2-1 2-1 1v3h-1v2l-1 1v2-2l1-3 1-3v-2l1-2 1-4 1-1v-2l1-1v-1l-1-1v-6l1-3v-3h1v-4l2-4v-1l1-1v-2h1l-1 1 1 1v-1l2-1 2-1v-1l1-2 1-2-1-1-1-1v-1l-1-1h1l2 1h1v-1h1v-2l1-1h-1v-1 1h-1l-1 1v-1l1-1 1-1 1-1h1l1-1m164 61v-1m0-2h-1 1m-166-28v5l-1 2v1l-1 1v2l-1 1v1l-1 2v2l-1 1v1l-1 2v2l-1 3h-1l1-1v-1l1-3 1-1v-2l1-2v-2l1-1v-6 1h-1v1h-1v1l-1 1v1l-1 1-1 2-1 4 1-4 2-3v-2l1-2 1-1v-3h1v-2h1l1-2h1m-11 22v-1m187-16v3l-1 1v3h-1v2l-1 1h-2l-1-1v-2h1v-1l1-1v-4h1v-1h2m33 9-1-1 1 1 1-1v-1m-17-15v3l-1 1v1l-1 2-1 1-1 2-1 1v1h-1v-1h-1v-5l1-1 1-1 3-3v-1h1m31-7-2 2-1 3-1 1v3h-1v3l1 2-1 1h-1l-1 1h-1v1l-2 2 1-1v-1l1-1v-2h-1v-1l1-2h-1v1l-2 1-1 1-3 2-1 1v1-3l1-1 1-1 1-1h1l1-1 1-1 5-4 1-2 1-1 1-1 2-2 1-1m-3 13h1m-237-15-2 1-1 2-1 1-2 3-2 2 2-2 2-3v-1l2-2 1-1 2-3h1m245 12v-1m1 0h-1 1m1-2-1 1 1-1m-33-11h1v3l-1 1-1 1h-1v1-6h1m15-26-1 2-1 2h-1l-1 2v1l-2 2-1 2-1 2-3 3-1 1v2l-1 1h1v1l1 1h1v-1l1-1 1-1v-1l1-1v-1l1-2h1v-2l1-1v-2h1l1-1 2-1 1-1h1l1-1v-1l1-1-1-1v-1l1 1v2l-1 1h-1l-1 2-2 1-1 2-1 1v3l-1 1v1l-1 1-1 2-1 1-1 2h-1l-1 2h-1l-1 1h-1v-7l1-1v-1l1-2 1-1 4-4 1-1v-1l1-1 1-2 1-1v-1l1-1 1-1 1-1m21 17-1 2-1 1 1-2 1-1 2-3 1-1-1 1m-184-83v1l-1 1v1h-1l-1 1v1l-2 1v1l-2 2-1 1-3 3-2 2-1 1-4 5-2 2-3 4-1 3-2 3-1 1-2 3v1l-3 5-1 3-1 1-1 2v1l-1 2v3-3l-1-2h-1l-1 1v2l-1 2-1 4-1 2-1 4v1l-1 1v2l-1 1v2l1-1 1-1v-1l1-1 1-2v-1l1-2v-1l1-1 1-1h1v-1 1l-1 2-1 3v2l-1 3-1 1-1 3-1 1-1 3-1 1-1 1-1 1-1 1h-2v-2h1v-4l1-1v-2l1-1v-1l1-2v-3h1l1-1 1-2v-3h1v-2h-1l-1 1v1h-1v2l-1 3v1l-1 1v1h1v1h-1l-1 1v1h-1v1l-1 1v1l-1 1 1-1v-2l1-1 1-3v-1l2-3v-2l1-2v-1l1-2 1-2v-1l1-2 1-1v-2l2-2 1-2 1-1 1-2 4-6 1-3 2-4 1-1 1-1 1-2h1l1-2v-1h1v-1h1v-1h1l1-1v-1l2-2 2-2 1-1 4-4 2-2 2-2 1-1 2-1v-1l2-1 1-1m164 70v1-1l-1-1m15-6-1 2v3-3l1-2v-1m7-13-1 1v3l-1 2v1l-1 1-1 1 1-1 1-1v-1l1-2v-3l1-1m9 6h1m1 0h-1m9-15h1l1 1 2 3-4 6-1 2v1-1l1-2 1-2h1l1-2v-2h1l-1-1-1-1h-2v-1h-1l-1 1v7l-2 2v1l-1 1v1h-1l-1 1h1v-2l1-1v-2l1-1v-4h1v-4l1-1 1-1m3-23v10l-1 2v6l1 1h1l1-1 1-1-2 3v1l-1 1-1 1h-1v-6l1-1v-10l1-4v-3m-21 18v4-4m24-8 1 1 1 2v1h1v1l-1 1v1-2l1-1h-1v-1l-1-2-1-2m-8-7v4l-1 4v-3l1-3v-3m-13-8 1 1v2l1 1v1l1 1v8h1v1h1-1l-1-1h-1v-1h-1v-5l-1-1v-3l-1 1v9l-1 1h-1l1-1v-12l1-1 1-1m22-2v9l-1 4v-7l-1-1v1h-1v1h-1v1-2h1v-3l1-1v-2h1m-228 10v-1l2-1 4-5-4 5m227-51-1 1-1 1v1h-1v2l-1 1v2l1 2v10l-1 2v1h-1l-3 1h-1l-1 1 1 2v21-11l-1-3v-1l-1-4v-7h1v1l2-1h1v-1l1-2v-1l1-3v-7l1-1v-2l1-2h1v-1l1-1h1v-1m3 35v2l-1 1-1 1v-4h1v-1m2-36v3-3m47-15v1l2 2v1h1v-1h-1v-1l1 2 1 4 2 6v1l-1 1-1-1v-3l-1-1h-1v-2l-1-4v-1l-1-2-1-4m-42-34h1l1 1v1l1 1v3h1v1l1 1 1 1v2h-1v1l-1 1 1 1v1l2 2v5h1-1v-3h-1v-1h-1l-1-3-1-1-1-2-1-1h-2v2l2 1v1l1 1v2l-1 1h-2v8h-1v-1l-1 1-1 1-1 2v4h6v4h-5v12-7l-1-2v-3l-1-2v-7l1-1 1-1v-1l1-1 1-1v-1l-1-1-1-2v-6l1-1v-1l1-1 1-1h4l-1-1v-3l-1-2-1-1v-3m43 33 1 1v2-1l-1-2v-2m-5-1h1l-1-1m-12-7h1l1 1 1 1 3 2 1 1h1-1l-1-1-3-2-1-1-1-1h-1v-1h-1 1m7-26v13l1 3v1l1 2v-1l-1-2v-1l-1-3v-13m5-13v1l-3 4 3-4v-1h1v-1 1m-31 4h-3 3l1-1m-6-26v2l1 2 2 2 1 1h1l1 1h1l1 2 1 1h1-1l-1-2h-1l-2-1-2-2-1-1h-2l-1-1h-1v1l1 3v12-3l-1-3v-6l-1-2-1-2v-2h1l1-1 1-1h1m13 19h-1 1m0-4v1-1m-1-1-1-1m43-77h11l1 1h3v1h-2l-2 1h-2l-4 1h-2l-7 1h-1l-1 1h-2l-2 1h1l1-1 4-1h1l2-1 2-1 1-1v-1h-14l-2 1h-3l-1-1h-1l-1 1v1h-1l-2 1h-3v1h-1v4h1v1h1l1 1 1 1h2v1h2l1-1 1-1v1l-1 1v1h-3l-2-1-2-1h-3l-2-1-1-1-1-1v-2l1-2v-1h1v-1l1-1h2v-1h8l1-1h14m50-10v2h-2v-2h1m-70-23 1 1 1 1-1-1-1-1v-1m10-7h2l2 1h2l3 1h2v1l1 1h-1v2h-5v-1h-4l-1 2h-1l-1 1-1 1 1-1 1-1v-1l1-1 1-1h1v-2l-1-1h-1l-2-1h-1 1m7 3h-1v1l1 1h3v-1h-1v-1h-2m-13-2h-1v1-1h1v-1M254 923l-1 1m-14-11v-1l1-1v-2 2l-1 1v2m223-10v1-1h1m-238-35v1-1m210-2v2-2m19-9h-2 2l1 1m-47-7v-2 2h-1l-2 1 2-1M256 718l2-1v-1l2-2 3-3 1-2 4-5 1-1-1 1-2 3-1 1-2 2v1l-3 3-2 2v1l-2 1v1l-1 1 1-1m262-41v-1l1-1 1-1-1 1-1 1v1l-1 1v1-1Z"/><path fill="rgba(146,20,117,1)" d="M744 997h1v2h-4v-2h2l1-1m-493-57-1 1h-2l-1 1h-2l-1 1 1-1h1l1-1h1l2-1h3m9-4h-1 1m1-3v2h-1v1-1l1-1v-1m-11-3 1 1h-1l-1-1m18-22v2l-1 1-1 2-1 2h-1v6l1 1h3-1l-1 1-1 1v2h1v-1h1l-1 1-1 1-2 3v-11h-1l-1 1-1 1v3l-1 1v1l-1 1-1 1 1-1 1-2 2-5v-2l2-4v-1l1-1 1-2h1l1-1 1-1m-34 4v1l-1 2v1l-1 5-1 2v2l-1 2v1l-1 1h-2v1-1h1v-1l1-1v-1l1-1v-1l1-2v-1l1-2v-2l1-2 1-2v-3l1-1m12 16v1l-1 1-1 1v1h-2v-1l-1-1v-1l1-1v-1h1l1-1 1-1 3-2m-28 5v2l1 1v1-1l-1-1v-3m35-4-1 1-1 2-2 2-1 1-1 1v2-5h1v-2h2l1-1h1l1-1v-1m209 1h-1l-1 1h-5 5l2-1m-15 0h-1m2-10h1v3h1-1l-2-1-1 1v4-7h1m-194 3 1 1v2-2l-1-1h-1 1m-35 3v-1m40-20v2l1 1v4l-1 1 1-1-1-1h-1l-2 1-1 1h-1l-1 1h-2v5h-1v1h-1v1l-2 1-1 1h-1v1l-1-1v-3l1-2v-1l1-2v2l-1 2v1h2l1-1 1-1 1-1v-1l1-1v-2l1-1v-1l1-1 1-3 1-1h1v2-1h1v-1l1-1h1m160 16v2h-5v-1h-1l2 1h4v-2m-220 2h1m283-7v2l-1 2v1l-1 2 1-2v-1l1-2v-3m-284 7v1-2m260-3v2h-1l-2 2h-1v1l1-1 1-1 1-2h1v-1m-259-15v1h1v6l1 1 1 1v4l-2 3v1l-1 2v-1l1-1v-15l-1-1v-1m266 19 1-2m-269-6v6l1 1h-1v-7m76 5h-2v1h-1l-1 1 1-1h1l2-2m197-7v2l-1 1-1 2v1l-2 3 2-3v-1l1-1v-2l1-1v-1l-1-1m-258 0v10-12l1-3v-4m205 19v-1 1m-141-14v3l2 1h1l1-1 2-1 1-1-1 1-2 1-1 1h-2l-2 1-2 2-2 2v1l-2 2v1h-1l1-2h1l1-2 1-2v-3l-1-1h-1l-1-1h-1v1l-2 1 1-1 2-1 1-1 3-1h1l3-1m-1 11-1 1-1 1 1-1 2-2m-15 1-1 1h-2 2l1-1v-1m-5 1v1-1m1-2-1 1v1l1-2m-20 1v-1m225 0h-2v1h-1v-1h1l2-1m-57 0 1 2v-1l-1-1v-2h1m-129 3h1m-40 0h-1 1m183-43 2 1 2 1 2 1 1 1 1 1 1 2v3l1 1 1 3 2 2 3-2 1-1h2v-1l1 1h4l2 1v1h1l1 1h1l1 1h3l1 1v1h1v1h1l1 1 3 1 1 1h4l1-1v-1l-1-2v-2h-1v-1h-4v-1l1-1 1-1h3l3-1 2-1v-1l1-1-1-1v-1 1l2 1 1 1v2h-2v1h-1v1h1v1l1 1v2l1 1v1l-1 3v3-1l-1-2v-5h-1v-1h-2v-2h-1v3l-1 1v12l1 2v3-1l-1-1-1-1v-1h-1v7l-1 1v1-16h-7l-1-1h-1l-1-1-2-2-1-1h-1l-1-1-2-1-1-1-2-2-1-1h-2l-1 1v1l-2 1h-4v1l-1-1-1-1h-6l-1 1 1-1h7v-1l-1-1h-2l-2-1h-1v-1l-1-1 1-1v-1l1-1v-1l-1-1-1-1-1-1-3-2-1-1h-3v1l-1 1v1l-1 1-1 1 1-1v-5h1v-1h2m-2 41 1-1h1l1-1h1v-1 1h-1l-1 1h-1l-1 1h-2 1m-178-1v1l1-1v-1m18-44v1l-1 2-1 4-1 1-2 7v4l-1 3v6l-1 2v1l-1 2v1l-1 4-1 2v3l-1 2v-1l-1-1h-1l-1-1v-5l1-1v-4h-1v1l-1 1v-1l1-2 4-9 1-2v-1l1-2v-1l1-3 1-2v-1l2-4 1-1 1-2v-1l1-1 1-1m222 41 1 1v2-1h-1v1h-2v-1l1-1v-1l1-1v-1m-192 2 1 1 1 2-1-2-1-1m-61-11v5l1-1 1-1v1l-1 2-1 2v1l-1 1v1h-1v-5l1-1v-1l1-1v-3l1-1m181 9v1l-1 1v1-1l1-1v-2m-211 4v-1m82-1h-2l-1 1 1-1h2m166-4v2-2m31 1 1 1-1-1m-53 0v1-1m-143-19v2l-1 1v5l-1 3v2l-1 1v1h-3l-1 1-1 1-1 1v1h-1v-2h1v-2l1-1 1-1 1-2v-1l3-6 1-1v-1l1-1v-1h1m4 16-1 1v1-1l1-1m-61-16v6l-1 2v3l-1 1v4-2l1-4v-5l1-2v-3m218 14h1-1m-211-29h-1l-3 1h-2v1h-1l-1 2v2l-1 1v3l1 1h-1v1l-1 1-1 2v1l-1 3v2l-1 1v2l-1 1h-3v1h-1v3-5l1-1v-5h1v1h2l1-1h1l1-2 1-2v-2l-1-1h-4v-2l1-1 1-1 1-1h1l1-2v-3h-1 5l2-1h5m205 25 1 2h1l3 2-3-2h-1l-2-1v-1m-21-7 2 2h1l1 1h1l1 1v1l1-1h1l2-1h1l-2 1h-1l-1 1v2l1 2v1-1h-1l-1-1-1-1h-2l-1-1h-1v1h-2l-2 1v1h-2v2-2l1-2v-3l1-1v1h1l1-1 1-1v-1l-1-2m-116 6h1l1 1v1h1-1l-2 1h-1l-2 1-2-1h-1l1-1h1l2-2h2m-64-21v3l1 1v2l-1 1v1l-1 1v3l-1 2v5-3l-1-1-1 1v1l-1 1v1l-1 2v3-4l1-4v-1l1-1v-2l1-1v-1l1-2v-2l1-1v-1h1v-4m73-10v3l-1 1v2l-1 2-1 1-1 3v1l-2 3-1 2-1 2v1l-1 1v1l-1 1-1 1v1l-1 1h-1v-2l1-1v-1l1-1v-2l1-1 1-2 1-1 3-7 1-2v-1l1-2 1-3v-1h1m236 14v1h-1l-2 1h-2l-1 1-1 1v1h-1v1h1v1l2 3h1v1l1 1h-2l-1-1-1-1h-1l-1-1-2-1h-2 2l1-1v-1l1-1v-1l1-1h3l2-1 2-1 1-1m-233 11v1-1l1-1m199 0h1l-1 1h-3 2m-5-9 1 1h1l2 1 1 1h4l1-1h5v1h1v1l1 1v1h2v-3l1-1h1v1h1v1l1 1 1 1h1-17v1h-1v-1h-3l-3-1-1-1h-1v-3l1-1m-174-8h1v3l1 1h-3l-1 1-1 1-2 2h-1l-1 1-1 1-1 1h-1v-1l-1 1h-1l-3 2-1 1-2 1 3-2 1-1 2-1 1-1 1-1h1l1-1 1-1v-1h1l1-1 1-1 2-2 1-1v-1h1m125 9h1v2l1 1 1 2-1-1-1-2v-1h-1v-2m14 1 1 1h1l1 1h1l-2-1h-2l-1-1m-3-1 1 1-1-1m-119-27v4l-1 1-1 1-1 3v3l-1 1v1l-1 2v1h1v2h-1v1h-1l-1 1v3h1v-1h1l2-1h2l1 1 1 1v1l1 1h1l1-1h1l2-1 1-1 2-1 2-1v-1h1l1-1 2-2 1-1 1-1 1-1-1 1-1 1-1 1-1 1-2 2-2 3h-1l-1 1-2 1-1 1-2 1h-6l-3-1-4-2-2-1h-1v-1l1-2 1-2v-2l1-1v-8h3v-1h1l1-1v-1l1-3h1l1-1m-132 21h-1l-1 2v2-4h2m240 1 1 1h1-1l-1-1h-1m81-2h4l1 1h3l1 1h1v1-1h-1l-1-1h-2l-2-1h-6 1m-292 1h-1l1-1m203 1-2-1m21-8v2l1 1-1 1h-1l-1 1-2 3-1 1 2-2v-3l1-1v-2l1-1m-221 7h1m215-5v2l-1 1h-3v-1l1-1h1l1-1m-212 1h-1l-1 1v1-1l1-1h2m154-12 1 1 2 2 1 1 1 1v1l1 1 1 1v4h-1l-2 1h-2l-1-1-1-1v-3l-1-1-2-3-2-2-3-2-1-1h-2l2-1h3l1 1 1 1h1l1 1 1 1h1v-1l-1-1-1-2-1-1m-154-43 1 1-1 2v3l-1 3h-1v1l-1 1v1l-1 3-1 2-1 2-1 5v2h-1l1-1v-3h-2l-1 1v6h1v1-1 1h-1v-6h-2v1h-1v1l-1 1-1 2v1l-1 1-1 1-1 1v1l1-1v-1l1-2 1-2 2-2 1-1 2-5 2-2v-1l2-3 1-1 1-1 1-2h1v-1h-2l-1 1-1 2h-1l-1 2-1 1-2 2v1l-2 2-1 1-2 3-1 2-2 3-1 2-2 3-2 3-1 1-1 1v1l-1 1-1 1v1l-1 1-1 1-1 1-1 2-1 1-2 3-1 1v1l-1 1h-1v1h-1v1h-1v1h-2v-1l1-1v-1l1-1v-1l1-1 1-1 1-1v-2h1v-2h-1l-1 1h-3v-1h1v-1l1-1 1-1 1-3 1-1 1-1 1-2v-4l1-1v-1l2-2v-1 1h-1v4h1v1l-1 1-1 1v1l-2 2-1 3h-1v3l1-1h2l1-1 3-3 1-1 1-1h1l1-1h1v-1 1l1-1 1-1 1-1 2-2v-1l2-3 1-1 2-3 1-1 1-2 1-2 1-1v-2l1-1v-1l1-1 3-4 1-1 2-3 1-2v-1h1v-1h1m-23 50v3l1 4-1-4m246 3v1-1h1m4-2h1v1h3l2 1-2-1h-3v-1h-3m4-9h1v1h3v2h-1v2h-1l-1-1-1-1-1-2v-1m-253 5v-1m3-11v4l-1 2-1 1v2l-1 1v1l1-2v-2l1-1-1-1v-1l-1-1h1l1-1 1-1v-1l1-1m165 8-1 1h1v-1m0 0h1m77-2 1 1-1 1h-2v-2h1m-86-3h1l1 1 2 1v1h1-1v-1l-2-1-1-1h-2m11-7h2-1v1h1l1 1v1l1 1v1l1-1h2l1-1h1l-5 2 4 5v-1h-1l-1-1h-4l-1-1h-1v-2l-1-1 1-1v-2l-1-1m96 3h1v1l1 1v2l-1 3-1-3-1-2v-2h1m-127 4h2v1h-1l-2 1h-3v-1l1-1h2m48-3h-1v-2 2m74-9 1 1h2l1 1 1 1v2h-1l-1 1h-1l-2 2h-1l-1-1v-1l1-1v-3h-1l-1-1h-1l-2-1h2l1 1h3v-1l-1-1-1-1m-80 4-1 1-1 1 1-1 1-1m-22-12-2-1h-4l-1 1h-1v1h-1v1h-1l1 1v1l1 1 2 1 2 1-3-1-1-1h-3l-2 1-3 2-2 2h-1l-3 1-1 1h-10v-1l1-1h1l1-1h3l3-1h1l1-1h1l2-1 1-1 1-1 3-1 1-1 3-1 2-1 5-2m8 13h4l1 1-2-1h-3m-5-1h2l1 1-1-1h-2l-3-2m-153-6-1 1-1 2-2 3 2-3 1-2 1-1v-1m242 5h1v1h2-2v-1h-1v-1 1m12-3 1 1 1 1-2-2m-93 1h3-3m68-2v1h-1 1v-2m-11-17 3 1 1 1 1 1 1 1h2v1h1l1 2v1l1 3 1 1 1 1 1 1h1v1h1-2v-1l-1 1-1 1v1-3h-1v-1l-1-2v-1h-2l-1-1v5l1 2v1-1l-1-1v-2h-1v-3l1-2 1-1-1-1v-1h-1v-1l-1-1-3-2-3-2m-217 17h1m248-1h1-1m-181-34-1 8v8l1 1 1 1h1v-1 3l-1 3-1 2-1 2v2l-1 1v1l-1 1v1h-1v1h-2v-2l1-1v-1l1-2 1-2v-3l1-2v-7l1-5v-8l1-1v-3m-16 32 1 1-1 1v1l-1 1-1 1h-1v-3l1-1 1-1h1m196 4v1-1m-51-20h4v1-1h-1v1h-1l1 1v4l-1-1-1-1h-1l-3-1h-2l-1 1h-3l-1 1h-1l-1 1v-4l1-1 2-1h8m83-128h1l1 1v5l-1 1-1 1v1l-2 2-1 1v4l-1 2v2l-1 4-1 2v3h1l1-1h1v-1l1-1v-3h2l1 1h1v2l1 1-1 1-1 1v1l-2 2-1 1v2h3l1 1v1l1 1v1l-1-1v4h-2l-1 1-1-1h-1v1h-1l-1 1h-1l-2 2h-1l-1 1-1 1v2l-1 2h-1l-1 2-1 1v3l1-1h1v-1l3-2h1v-1h1l1-1v-1l1-2 1-1 1-1 1-1 1-1h1v4l-1 2-1 1h-1l-1 1-1 1-1 1-1 1v1l-1 1v5h-1v1h-1v-1h-1v4h-2v1l-1 1-2 2-2 1-1 2h-1l-1 1h-1v1h-1v-1l1-1 1-1v-7h-1v1h-1l-1 1-2 1v5h-4l-1 1-1 1h-1l-1 2-1 2-1 1-1 1v2l-1 1v1h1v2h-1v1h-1v5l1 1 1-1v2h-1v2l-1 1-2 2-1 1-2 2-1 1h-2l-2 1h-1v9h-1v1l1 1v2h-1v2h-1v1h-3v8l-1 1h-7v1l1 1h-1l-1-1h-1v-1h-2v-2h1l1 1h2l1-1h1l1-1v-4h-4l-1-1h1v-2l1-1v-2l1-2 1-2 2-4v-2l1-3v-1l1-1v-3h-1v-1h-2v1l-1 1-1 1-1 3 1-1v-1l1-4v-1l1-1v-1l1-1h1l1 1v1l1 1h1v-13l1-9 7-7 5-6 2-2v-1l1-1 1-1 2-3 1-3 1-1 1-3 1-2v-2h-1v-1h-1l-1-1-1-1v-1l1-1v-1l1-1 2-2 1-2 1-1 1-2v-1l1-1v-1l1-2v-1l1-1h1v4h1l1 1h5l2 1h1v-5l1-2 1-1 1-1h-1v-1h2v1h1l1 1v-1h1v-1l1-2v-1l1-3v-7l1-1 1-2h1l2-2 1-1m-87 128h-1l-1 1h-1v2h2v-1h4l1-1h-1l-1-1h-1m13 0h1v1h-2 1v-2m0 0v-2m-14-15v1l-1 1v2l-1 1v1l-1 2-1 2v2l-1 1v1l-1 1h-1v-4l1-1 1-2v-1l1-3 1-1 1-1v-2h1m-123-78-1 1v2l-1 1h1v1l-1 1v1l-1 1-1 2-1 1v2h-1l-2 1v5h-1v2l-1 1v2l-1 2-1 2-1 1v1l-1 4-1 2v2l-1 1v2l-1 1v3h1v-1h1v-1l1-2 1-2v-1l1-3 1-2 1-1 1-1v-1h1v-1 5l-1 1v3l-1 2-1 2-1 2v2-6h-1l-1 2h-1v2h-1v3l-1 1-1 2v2l-2 3-2 4-1 2-1 4-1 1-1 4-1 1-1 3h-1v3l-1 1-1 3-1 1-1 1-1 2-2 3v-10h2v-1h1v-3l1-1v-2l1-1v-2h1v-3l1-1 1-2 1-2v-1l1-1v-1l1-1v-2l1-1v-1h1v-10l-1-2v-3l1-2v-1l2-1h1l1 1h1v-1l1-1 1-1 1-1 1-3h1v-1l1-1 1-2h1v-2h1v-9l-1-1v-1l-1 1h-1l1-1 1-1v-2h2l1-1h-1v2h2l1-1 1-1 1-1 1-1 1-3 1-1v-1m189 2h-1l-1 1-1 1v1l-2 2v1l-1 3v3l-1 2-1 1-1 2v2l-2 2-1 2-3 6-2 3-1 3-1 1-1 2-1 1-2 3-1 2v1l-1 3h-1l1-1v-3h-3v1h-1v4l-1 1v1h-1v2l1 1h2l1-1v-1 1l-1 3-3 6v2l-1 1-1 1v1l-1 2-1 1v1l-1 3-1 2-1 4v2l-1 1v3h1v-1l1-1 1-2 1-1 1-3 1-1 1-4 1-1h1v-1h1l1-2v-1h1l1-3 1-1 1-3v-1l1-1v-4l1-2h1v-1l1-2 2-4v-2l1-3 1-2 1-2 1-1 1-1 2-3 1-1v-3h1l1-1 1-1v-2l1-1v-1l1-1 2-1 2-2 1-1v-1l-1-1h-1l-1-1v-1l1-1 1-1 1-1 1-2 1-1v-1l1-1v-5h-1m-185 51 1 1v3l-1 1v16l-1 4v10-27h-1v3l-1 1v2-4l1-3v-4l1-1v-2h1m140 27-1 2-1 1v1-1l1-1 1-1v-2m-159-30v2h-1v1l-1 1 1-1v-2l1-1m192-11h-1v1l-3 3-1 1-1 1v5h1v1h1v-1l1-1 1-2 1-1 1-2v-1l1-1v-3h-1m9 7v2h-1l-1 1h-1v-1h1v-1l1-1m-223-8-1 2-1 2-1 1-1 2h-1 1l1-2 1-1 1-2 1-2m222-14v6-1h1l1-1 1-1v-3h-2m-200-8h1l-1 1v2h-1v1h-1l-2-1h-1l-2 1-1 1-1 1-2 1-1 2v-1l1-1 2-1 1-1 1-1 1-1 1-1h1l1-1 1-1v1l1-1h1v-1m217-18h-1l-1 1-1 1-1 1v1l-1 1-1 2-1 1v1l-1 1-4 4-1 1-1 2v1l-1 1v7h1l1-1h1l1-2h1l1-2 1-1 1-2 1-1v-1l1-1v-3l1-1 1-2 2-1 1-2h1l1-1v-2l-1-1v-1l-1-1m-204-11v2h-1v3l-1 2-1 1h-1v3l-1 2v1l-1 1v2l-1 1v3-2h-3l-1 1h-1v1l-1 1 1-2 1-1 3-3v-1l1-1v-1h1v-1l1-1h1v-1h-1v-1l1-1v-1l1-3v-2h1v-1l1-1m227-32v11l1 1v5l-1 2v4l-1 1v3l-1 2v1l-1 1-1 1h-1v1l-1 1-1 2v1l-1 2v4l1 1 1 2h1l1 1v-1h1l1-1 2-2 1-2h1l1-2v-1l1-1 2-3v-1l1-1v-1l1-1 1-1h3l1-1h1v-1l1-1v-1l2-2v-7l1-1h1v1h2l1 1 1 1h-1v2l-1 2h-1l-1 2-1 2-2 3-1 1v1-4h-1v1h-1v1l-1 1-1 1v2h2v-1l1-1v1l-1 2-1 1-1 2v1h-1v3h-1 1v-3l-1-1v-4l-1-1h-1v1l-1 1v1h-1v3l-1 2h-1l-1 2-1 1-1 2-1 1-3 2-1 2h-1l-1 1v2h-1l-1 1v-2l1-1v-1l1-1v-1l1-1h-5v-3l1-3v-3l1-2v-2l2-2v-1l2-3v-1h1-1v-1l1-1v-1l1-1v-3l1-1v-1l-1-1h1v-2h1v-5l1-1v-11m6 49-1 1 1-1m-226-15-1 3-1 1-1 3v2l-1 3-1 1 1-1 1-3v-2l1-3 1-2 1-3v-4m0-1v1-1m6-13-1 3-1 1-1 3-1 1-1 2v2-2l1-2 1-1 1-3 3-5v-1m236-26 1 1v12l1 2 1 2v1h1l-1 1v-2l-1-2-1-1-1 1-1 1v2h-1v3h2v-2l1 1 2 1v-1l-1 2h-1l-1 1-1 1h-1l-1-1v-6l1-2v-13h1v-1h1v-1m-234 23 1-1v-1m215-33v2l1 1h1v1l1 1v2l-1 2v1l-1 5v5l1 1h8v-1h1v-1 1l-1 3-1 4v3l-1 1v2l-1 1h-1v-1l-1-1v-5l-1-1v-1l-1-1h-1v-1h-1v-8l-1-1v-1l-1-1v-2l-1-1-1 1-1 1v6-12l1-1v-2l1-1v-1h1l1-1m24-39v6l-1-1h-1l-1-1h-1v1h-1l-1 1v1h-1l-1 2v2l-1 1v7l-1 3v1l-1 2v1h-1l-2 1v-1h-1v7l1 4v1l1 3v17-6l-1-1v-3l-1-2v-3l-1-1-1-1v-12l1-2 1-1 1-2v-1l2-3 1-2v-1l1-1v-4l1-1 1-3 1-2 1-3 1-1 1-1 1-1 1 1v3l1 1h1v-6m-192 19v1l-1 1-1 1-1 1-1 1-1 1-1 1v1l-1 1h-1l-1 1-1 1h-1v-2l1-1v-1h1l2-2 1-1 1-1 1-1 1-1h2v-1h1m193-75 1 1 1 1 1 1 2 4 1 1v1l1 1v1l1 3 1 1v1h1v1l1 1v2h-1v5l-2-2v-1l-1-1 1-1v-1h1v-2l-1-1-1-1v-1h-1v-3l-1-1v-1l-1-1h-1v3l1 1 1 2v3l1 1h-4l-1 1-1 1v1l-1 1v6l1 2 1 1v1l-1 1-1 1v1l-1 1-1 1v7l1 2v3l1 1h-1v-2h-1v-1l-1-1v-8l-1-1v-1h-1l1-1h1l1-1v-8l-1-2v-1h1v-5l1-1v1h1v-2h-1v-1h-1v-1h1v-1l2-1v-3l1-1 1-1h-1v-2h-3l-1-1v-1h-1v-1l-1-1 1-1h3m11 29h1v1h-1v-2m4-2v1l-1 1 1-1v-1m-11-11h-1v2h2l1-1-1-1h-1m8-14h1l2 2 1 2 1 1v4h-1v1l-1 1v-2h-4v-1l-1-1v-6l1-1m6 0h1l1 1 1 1v1h1v1h-3v-1l-1-1-1-1 1-1m6-6h1v2h-1v2h-2v-3l1-1h1m-6-6-1 1v4l-1 1h-2l-1 1v2l-1 1v-1h-1v-1l-2-2-1-2v-1l1 1h4l1-1 2-1v-1l1-1 1-1m19 1v6h-1v1h-1l-1 1h-2l-1-1v-1h1l1-3 1-1v-1l2-1h1m-10-2 1 1v5h-1v-1l-1-1v-3l1-1m-7-2v1l-2 1v1-2h2v-1m-13-2v2-2m3-13 2 1 1-1h3l1 1 1 1 1 1v6h1v1l1 1v2-2l-1-1-3-3-1-1-1-2h-1l-1-1h-1l-1-1-2-2v-1m-5-11h1v1l1 1 1 1v3l1 1 1 1v1h-1v-1h-1l-1 1-1 1h-1v2l1 2 1 2v6l1 3-1-3v-5h-1v-2l-1-1v-1l-1-1v-2l-1-1v-3l-1-1v-1h-1v-2h3v-1l1-1m35-68h1l1 1h1l1 1 1 1 1 1h-1v1h-1l-1 1h-1v2h1l1 1h1l2 1h2l1-1h1l3-1 1 1h4l1-1h1v1h1l1 2h8l3 1h1l1 1h1-2l-1-1h-29l-1 1h-8v1h-2l-1 1v1h-1v1l-1 2v2l1 1 1 1 2 1h3l2 1 2 1h3v-1l1-1v-1l1-1 1-1h1l1-1-1 1h-1v1l-1 1v1l-1 1v1l-1 1h-3l-1-1h-1l-2-1h-4l-1-1-2-1-1-1-3-2v-1h-2l-1-1v-3l1-2 1-1 1-1v1h2l1-1h1v-2h1-3l-1-1v-1h-1v-1l-1-1h1l1-1 1-1h4l2 1v-1h1l1-1h2v-2h1m10 20h1m48-2h3-6m7 0h1m1-5h2v1l-1 1v1h-3v-3h1m-39 3h1m9-1h-5l-2 1 4-1h2l2-1m33-12h-2v2h2v-1 2l1 1v2h-1v1l-1 3h-1l-1-1-2-1-1-1-3-3 2-1 2-1 1-1v-2h2v-1h2v3m0-6h1v3-2l-1-1m-41 0h-2l-1-1 1 1h2l1-1m-15-4h1l1 1h7-9l-1 1h1l1 1h2-6l-1-1v-1l1-1h2m49-6 2 3 3 4v1l-1-1-3-5-1-2m-52-16h3l1 1 3 1h1l1 1h1l1 1 1 1 1 1v-1h1l1-1 2-1 1-1 2-1h1v-1 1h1v1l1 1h1v1l-1-1h-1v4l-1 1v1h-1v-1h-2l-1 1-1 1h-4l-1-1h-1v-1h-1l-2 1h-1l-1 1-1 1-1 1-1 2v2h-1l-1 1-2 1h-1l-1 1h-1l-1 1h-4l-2 1h-1v-1h-1l1-2 1-1h4l1 1v-3h-1l-1-1h-1l-2-1-2-1v-1h3v-1h-1 1l1 1h3l2-1h-1v1h-1v1h1l1 1h1l1 1h2l1-1v-1l1-1h1v-2l1-1h-1v-1h-1v1l-3 1h-1l1-1h1l1-2h4v1h5v-2h1l-1-1v-1h-2l-3-1h-2l-2-1h-8l-1 1h-1v3-1l-2-1h-2l-1 1-1 1v3h-1l-1-1-1-1v-1l1-3 1-1h1l1-1h6l2 1h3l1-1h2m48 12h-1 1m-2 0h-2 1m-17-7h1l3 1 1 1h2-1v1h-1v1l-1 2h-2v-3l-2-2-1-1m-38 2v1-1h1m13-16 2 1 3 2h2l2 2h2l1 1h1l1 1h1v1l2 1-2-1-1-1-1-1h-1l-1-1h-2l-2-2h-2l-3-2-2-1h-1m-15-6h-1 1M216 921l1 1-1-1m267-9v2l-1 3 1-3m-244-2 1-1v-2l1-1 1-2v-2 2l-1 2-1 1v2l-1 1v2-1m-27-46v-1l1-1v-2 2l-1 1v1l-1 1-1 2 1-2m274-14 1 1-1-1m-72-44v-1l2-3 1-1 1-3-1 2-2 4v1l-1 1-2 2 1-1m-155-29 1-2v-1l1-3 4-10 1-2 1-3-1 3-1 2-4 10-1 3v1l-1 2v1-1m54-144 2-2 1-1 2-2 3-3-7 7Z"/><path fill="rgba(192,86,174,1)" d="m252 915-1 1v3h-1l-1 3v1l-1 1 2-5-3 2-1 1-1 1h-1v1l-1 1v1l1 1v1h2-2v1l-1 1h-1v-1l-1-1h-2l-1 1h-1v-1 1l1-1h1v-1h1v-1l1-1 1-2 1-1 3-3 1-1 1-1h1l1-1 2-2m-16-7v2l-1 3v3h-1v5h1v-1l1-1 1-1h1v-1 1l-1 4h-1v2l-1 2v1l1 1v1h1-1l-1-2h-2l-1 1h-1v1l-2 1h-4l-1-1 1 1h3v-1h2l1-1v-1l1-2v-2l1-2 1-5v-1l1-2v-1l1-3v-2m22 7v4l-1 1v1l-1 1h-1l-1 1h-2v2h-1v4-7h1l1-1h2v-1h1v-3l1-1v-1h1m-36 4v6-8 1m33-3 1-1m72-9v3h-1v1h-1v-2l1-2v-1h1m85-11v2l-1 1v1-1l1-1v-2m5-9h-1v1l-1 2-1 1-1 2v1l-1 1 1-2v-5h2v-1h2m10 5v-1m46-11v2h2v1h1v1l-1-1v1h-1l-1 1v1h-1v3l-1 1v2-8l1-1v-3m-45 10h-1m50-5v3l1 2-1-3v-3m-55 2h2l1 1-1-1h-4v-1h1m-176-11v2l-1 3-1 1v3l-1 2v1l1-3v-3l1-1 1-3v-2l1-3 2-4-2 4m214 2 1 1 2 1h1l1 1 2 1h1l2 1h1v-1 1h-3l-1 1-1 1h-2v-1l-1-1-1-2-1-1-1-2m14 4 1-1m1-1v1h-1l1-1m60-2v1l-1 1h-3 3l1-1v-1m-10-2h1l-1 1v3h-2v-1l-1-1v-1h-1v-1h4m-20 2h1l1 1 3 1-3-1-1-1h-1v-1m23 0h-1m-18-1h3l1 1h2-4l-1-1-2-1m-2-1h1v1h1-1l-1-1-1 1v-1h1m-48 0-1 1v-1h1m-114-14v3h2l1 1h2l1 1v3l1 1 1 1 1 1h1l2-1 1-1h1l1-1 1-1h1-1v1l-2 1-2 1-1 1-2 1h-1l-1 1h-1l-1-1v-1l-1-1-1-1h-2l-2 1h-1v1h-1v-3l1-1h1v-1h1v-2h-1v-1l1-2v-1l1-1m-141 2h-1v1h-1 1v-1h1m164-1-1 1 1-1m-166-1 1-1m0-1v1-1l1-1m141 0v1-1l1-3h1m-85-25-1 1-1 3-1 2-1 3-1 2-1 3-1 2-1 3v1l-1 2v2l-1 1v1l-1 1h-3l-1-1-1-1v-1l1 1v1h1v-1h1v-1l1-1 1-2v-1l1-3v-1l1-3v-1l1-1-1 2v1l-1 2v2h2v-1l1-1v-1l1-2 1-2 1-2 1-2 1-4 1-2 1-1v-1m-55 23v2h-1v2l-1 1v-1l-1-1v-1h-2v-1h3l1-1m53-8-1 2v2l-1 2-1 1v2h-1v2h-1v1h-1v1l1-1v-2h1v-1l1-1v-1l1-1v-2l2-3v-2m89 8v2l-1 1 1-1v-2m116-1v1h2l1-1h-1v2l-1 1-1 1h-1l-1-1v-1l1-2h1m-217-1-1 1v2-2l1-1v-1m-39-4-1 1-1 1-1 3-1 1-1 1v1-1l1-1 1-2 1-2 1-1 1-1 1-2v-2 2m257 7 1 1-1-1m-148-8v1h1v1h-4v-1h1l1-1m142-2v4h-1l1-1v-3m-16-4 1 1 1 1-1-1-1-1-12-5m12-12h2v1l1 2v1h1v3h-1v2h-1l-1-1-1-2-1-2v-5m-182 3v2l-1 1v1l-1 2 1-1v-2l1-2v-1m5 4-1 1 1-1m-9 0h1m196-3-1 1h-1v1-1h1l1-1 2-1-2 1m-9-9v1l1 1 1 2 1 2v1l1 2-1-1-1-1-1-3v-1l-1-2h-1v-1h-1 1m-7-4h-1m0 0h-1m-2-3h1m1 0h-1 1m11-16-1 1h1v1l1 2 1 2v2h-1l-1 1v1l-1 1v1l-1 1h-2v1h-1v1-8h3v-1h1v-2h1v-2l-1-1v-1h1m0-1v1-1m-146-3v2l-1 1v1l-1-1v-3l1-1m147 1v3-5m0-2v-1m2 0 1-1m1 0h-1 2m0 0v-1m65-82v1l-1 1-1 1-1 1-1 1-1 2h-1l-3 4-1 1v1h-1v1l-1 1-1 2v1l-2 2-2 2v1l-2 1v1l-1 1-1 2v1l-2 4v1h-1v1h-1l-2 2v2l-1 2h2l1-1v3h2v-1l1-1v-2h-1v-2h2v-1h1v-1l1-1v-1l1-2 1-1 1-1h2l1-1h1v-1l2-1 1-1 1-1-2 2-1 2-2 3-4 4-1 1-2 2v1l-1 1-2 2-1 1-1 1-1 2-5 4-1 1-1 1h-1l-1 1-1 1-1 1v7l1 1 1 1-1 1h-2v-1h-1l-1-1-1-1-2-1h-1v-1h-1l-1 1h-1l-1 1h-1v1l-1 1h1l-1 2v1l-1 1-1 1-1 1-1 1-4 5-1 1 1-1v-2h1v-2l-1 1-1-1v-5h1v-1h1v-2h-1v-1l1-1v-2l1-1 1-1 1-2 1-2h1l1-1 1-1h4v-5l2-1 1-1h1v-1h1v7l-1 1-1 1v1h1v-1h1l1-1h1l1-2 2-1 2-2 1-1v-1h2v-4h1v1h1v-1h1v-5l1-1v-1l1-1 1-1 1-1 1-1h1l1-1 1-2v-4h-1l-1 1-1 1-1 1-1 1-1 2v1l-1 1h-1v1h-1l-3 2v1h-1l-1 1v-3l1-1 1-2h1l1-2v-2l1-1 1-1h1l2-2h1l1-1h1v-1h1l1 1 1-1h2v-4l1 1v-1l-1-1v-1l-1-1h-3v-2l1-1 2-2v-1l1-1 1-1-1-1v-2h-1l-1-1h-2v2-2l1-1v-1h1v1h3l1-1v-1l2-3-1 1v2l-1 2v3l-1 3v3h5l-1 1v1l-1 1v1l-1 1v2l1-1h1v-2l1-1h1l1-2 3-2 1-1 1-2 1-1 1-2h1l1-2v-1m-239 60 1 1v4l-1 1h-1v-4l1-1v-1m195-5-1 1v1h-1v1h1l1-1h1v-2h-1m16 2-1 1v-1h1m0 0 1-1m-208-7v3l-1 1-1-1v-2l1-1v-1m179-7-2 3-1 3-1 1-1 2-1 1 1-1 1-2 1-1 1-3 2-3 2-4m13-8-1 1 1-1m-1-2 1 1v1-1h-1v-1h-1m-1-2v1l1 1-2-1 2-2m4-12h1v5l-1 1v1l-1 1-1 2-1 1h-1l2-1 1-2v-4h-2v-1l1-1h-2l-1 1-1 1v1l-1 2-1 1v1l1-3v-1l2-2v-1l1-1 1-1h3m-18 3v2h-2v1h1v1h-2v-3l1-1h1m63-15 1 1v3l-1 1-1 2-1 1-1 2-1 1-2 3v1l-1 2-1 1 1-1v-1l1-2 1-1 2-3v-6h2l1-1v-5m-29 7v2l1 1h-1v-4m-8-5h1l-1 1-1 1 1-1 1-1h-1m7-8v1l-1 3v1l-1 2v1h-1v1l-1-1h-1v-1h-1 1l1-1h1l1-1 1-1v-4l1-3m5 3 1 1 1 1 1 1v3h-1l-1-1v-1h-1v-1 1h-1l-1 1 1-1v-4h1m4-9v3l-1 1-1 1 1-1 1-1v-3m-2-3h-1l-1 1 1-1m15-12v5l-1 1v5h-1v1-1h1v-5l1-1v-5m24-5 1 1 1 2v4l-2-1-1-1v2h-2v-3h1v-2l1-1 1-1m-10-5h-5 5m0 0h1m-8-9v8h-1v-5l1-4m9 9v-1m0-5v5-7m-15 1v-1m5-23v1l1 1v4l1 1-1 1h-1v3l1 2v2-1h-1l-1-1v-3l-1 1h-1v1l-1 1v2l-1 1v7-8l1-2v-1l1-1v-1l1-1h-1v1h-1l1-1v-2l2-2v-5m21-29-1 1-1 1-1 1-1 3 1-3 1-1 1-1 1-1m3-1v6h-1l-1-1v-3l-1-1 1 1v1h1v1-3l1-1v-1m-2-8v1h1v2l1 1v1-1l-1-1v-2h-1v-1l-1-1m0 0v-1m-1-9h-1m3-2-1 1 1-1m0-5v3-4m14-8v1h-1v5-6m-10-10v2l-2 1v1h-1v1h1v1h1v2h-1v-1l-1 1v5h-1v-10l1-1 1-1h1l1-1v-2h1l-1 1m7-14 2 2v1h1v1l1-1v-2l1-1v3l1 1v2l1 1 1 2-1-1-2-2h-2l-1 1v6l1 1v1h4v2l1-1v-1h1v-2 1l1 1v2l-1 1h-1l-1 1h-4v-1l-1-1-1-2h-1l1 1v1l1 1 1 2v1h1l1 1h-1v2-1l-1-1v-1h-1v-1l-1-1-1-3v-1l-1-1v-1l-1-1-2-4-1-1 1 1 1 1 4 4v-12l-1-1v-1m-3 21 1 1-1 1h-2v-2h1m-6-15h-1l-1 1 1-1h1m18-10v4l-1 1 1-1v-4l1-1m2-9v-1 1m3-72 1 1h-1v-1m0-1v-2m15-14v1h-2l-1 1h-1v1l-2-1h-4l-1 1-1 1h-1l1 1v1h1v1l1 1h3-1v2h-1l-1 1h-2v-1l-1 1-1 1-1 2 1-1v-4h-1l-1 1h-1l-1-1v-1h1v1h1v-2h-1l-1-1v-3h6l1-1h1l1-1h1v-1h8m45 9h2l3 1v1h1v2h-2l-1-1h-7v-2h1v-1h2m-37-6v3h2v3h-1l-2-1h-1l-1-1h-1v-2h1l1-1h1v-1h1m12 5h-2 2m-3-1v1l-1-1-3 1 2-1m-10-6h1-1m-25-6v2h-2v-2h1m51 1h-2 2v-1m-10-1 2 1-2-1h-2m13 0h-1m0-1v1-1m-1 0h1-2m-13-2h1-3l-1 1v1l-1-1 1-1h2m7-14-2 1h-1l-1 1v1l-1 1v1l-1 2v1l-1 1-1 1h-2v1h1l-1 2v1h-1l-2 1h-1v-2h-2l-1-1-1 1h-2l1-1h4l1-1h1l1-1h1l2-1 1-1h1v-2l1-2 1-1 1-1 1-1h1l2-1m-23 12h1v1h1-2v-1m-2-13 1 2v1h1l1 1h1-2v1l2 1 2 1h1l1 1h1v3l-1-1h-4l-1 1-1 1v-5h-5l-1 1h-1v-1l1-1 1-1v-7 1l1 1 1 1h1v-2m5 5h-1 1m-1-1h1-1m26 0h1-1m2 0h-1 1M469 911v1m5-46h-2 2l2 1m-10-4h-3 3l1 1h1-1m-98-15 1-1 1-2-1 2-1 1m-113-33v-1l1-2v-1 1l-1 2v1l-1 2-2 6 2-7m245-85-1 1h-1 1m-26-20-2 2 2-2m43-32h1v-2 2l-1 1v1m-3-209 5 2h2-2m80-56-1 1m47-8h-1m-17-22h-1 2l1 1-1-1m-54-5h1-1v1l-1 1v-1m4-5h-3l-1 1h-2 2v-1h7-1Z"/><path fill="rgba(217,126,204,1)" d="m247 960-1 1-1 2-2 2-1 2-1 1-1 1v1h-2l-1-1-2-1-1-1 2 1h1l1-1v-1l1-1v-1 1l1 1v-1h1l2-2 1-1 1-1v-1h1m-12-16v1l1 1v2l1 2v1l-1 2-1 2v1l-1 3-1 1v1l-1 1v1l-1 1-1 1v-1l1-3 1-3v-2l1-2v-5l1-1v-2h-1v-1h1l1-1v-1m7 12v1l-1 2v1-2l1-1v-1m1 0v1-1m1-11-1 1v2-2l1-1v-1m0 0 1-1m14-30-1 1v1l-1 1v3h-1v1h-2l-1 1h-1v9l1 1h3l1-1h1l1-2 1-1 1-1v-1l1-1v-3l1-1 1-1h1v11l-1 2v1-4h-5l-1 1-2 1h-1l-2 1h-1v1l-1 1-1 1h-7l-1 1h-1l-1 1-1 1-1 1-1 1v1h-1l1-3v-3l1-1-1-1v-2h-1 3v-1h-1l-1-1h-5l-1 1v2h2v-1 1h-1l-1 1h-4l-3-1-1-1h-1 1l2 1h2v-1l-1-1h-1v-1l1 1h4l2-1v-1h1l1-1h2l1 2h1v1h1l1-1h2l1 1v1h1l1-1v-1h2v-1h1v-1l2-3v-1l1-3h1v-3l1-1 1-1 1-1h1l2-1m4 23-1 1-1 1h-2l-2 1h-2v1-1h2l2-1h2v-1h2v-1m-49 0h-2 4m4-2-1 1h-1 1l1-1m-13-4 1 1v1l1 1h3l1-1h1l-1 1h-4l-1-1v-1l-1-1-1-1m-1 1v2h1-1v-2m23-44v1l-1 4v2l-1 3v6l-1 3v6l-1 2v14l1 1 1 1-1-1h-1l-1-1h-1v-1l-1 1h-1v1l-1 1v-1l1-1v-1l-1-1v-2l-1-1v-2l-1-2v-17 3h1v1h1l2 1v4l-1 1v1l-1 3v3l1 1 1 1h1l1-1 1-1v-5l1-2v-6l1-2v-7l1-3v-3l1-6 1-2m43 40-1 1-1 2h-1v1h-1v-2l1-1 1-1h1m214-26v1l-1 1v1h2v-1h1v1h1v9l-1 2v1l-1 2h-1v2l-1 3v2l1 1v1l2 2-1-1-1-1-1-1v-2h-2v1h-1l-1 1-2 1h-1v-2l1-1 1-1 1-1h1l1-1h1l1 1v-4l1-1v-1l-1-1v-1h-1v-11l1-1v-1h1l1-1m-34-1v8l1 2v3l1 3h-2v10h2l2 1h-2l-1 1h-3v1h1v1h1l-1-1h-1l-1-1v-1h-1v-5h2l1-1h-1v-1l-1-2-1-1-1 1v-2l1-3 1-1v-1l1-2 1-4v-4l1-1m12 29h-8 5m-205-51-1 2v1l-1 2-4 9-1 2-2 5v2l-1 2v3l-1 1-1 3v3l-1 2-1 1v2l-1 1v4l-1 1h-1l-1 1-1 1v1h-1v-5h1v-3l1-3v-2l1-3 1-6 1-4 2-7v-2l1-3v-2l1-2v-1l-1 2v3l-1 1v4l-1 5-1 2v4l1 1h1l1-1h1v-1l1-1v-2l1-1v-1l1-2 1-2 1-2v-1l4-8 1-3v-1l1-2m214 47-1 1h-1v1h-5 3l1-1h2l1-1m-14-5h1-1v-1m15-1 1-2m-8-2v1h-1l-1 2 1-2h1v-1l1-1m-171-11 1 1 1 2v1l-1-1h-1l-1-1h-2v1h-2l-1 1v1l-1 1-2 2-2 1-2 2-2 1-2 2h-1l-1 1h-1v-2h1v-1l2-2v-1l2-2 2-2 2-1h2l1-1 2-1 1-1h2l1-1h1m-16-28v2l-1 2v7l-1 1v1l-1 1v1l-1 1-1 2-1 2-1 1-1 3-1 1-2 3v1h-1v4l1 1h1l1-1h1l1-1h1l1-1 3-1-2 1-1 1-1 1-1 1v1h1l-1 1-1 1-1 1-1 1h-4v-2l1-1v-1l1-1v-4l-1-1v-2h-1l-1 1v1h-1v1-2h-1l-1 1-1 3-1 1v1l-1 1v2l-1 1v1l-1 1-1 1-1 1h-2v-1l1-2v-3l1-1v-1l1-1v-2 3h2l1-1h1v-1l1-2v-4l1-1v-1l2-2v-1l1-1v-3h1l1-1v-3h1l1-3v-2l1-1 1-1v-1h1v-1l1-1 2-1 1-1h1l2-1v-1m198 40-2 3 2-3v-1m-192-5-2 1v1l-2 1v1l-1 1v2h2v-1h2v-1l2-2 1-1v-2h-1m193 0v2l-1 1-1 2 1-2 1-1v-1l-1-2m-4 3-4 1 2-1 1-1v-1h1m-47 0h-2m8-15v7l-1 3v1l-1 2h-1l-1 1h-1l-1 1 1-1 1-1 1-1v-3l1-2v-4l1-1v-2m-73 5-1 1-2 1h-1l-3 1-3 1h-4l-1 1h-1l-1 1v-1l1-1 1-1h1v-1h5l3-1h4v-1h2m-93-41v2h2v3l-1 2v3l1 1v2l-1 1v1l-1 4v4l-1 2v2h-1l-1 4-1 1-2 5-1 3-1 2-1 3 1-2 1-4v-1l1-2v-1l1-2v-6l1-3v-4l2-7 1-1 1-4 1-2v-1l-1 1-1 1v1l-1 2-1 1-2 4v1l-1 2-1 3 1-3 1-2v-1l1-2 1-2v-1l2-2v-5l-1-2v-1h1m162 32h2l1 1h-2l-2 1h-1v1l-3 1-1 1-1 2-1 1-1 1v3l-1 1 1-1v-2l1-2v-1l1-2 1-1 1-2v-1h1l1-1h2m26-7h1l1 1 2 2 1 1 2 1 1 1h1l1 1 2 2 1 1h1l1 1h7v9l-1-1v-1l-1-1v-1l-3-2v-1h-2l-1-1-2-1-1-1-2-2-1-1h-2l-1 1v3h-1v1l-1 1v2l-1-1-1-1-2-2-3-2h-1l-1-2h-1l-1-1v-3h4l2-1v-1l1-1h1m36 18 1 1v1-1l-1-1m-201 1v1l1-1m4-4-1 2-1 1-2 1 2-1 1-1 1-2m7-39h1v4l1 1v2l1 1-1 2v2l-1 1v1l-1 1-1 3v2l-1 1v1h-1v1l-2 1v1l-1 1v1l-1 1v3l-1 2v1l-1 1-1 1h-1l-1 1h-2v1h-2v1l-2 1-1 1h-1v-1l1-1v-1l1-1v-1l2-3 1-2 1-3 1-2 3-6 1-3 1-1 1-2v-2h1v-3l1-1 1-3 1-1v-1l1-1v-1h1v-1l1-1m-71 28-1 2v2l-1 2h-1l-1 1v3h-2v1l-1 1v2-3l1-1v-5h1v-1h3l1-1v-2l1-1v-2m254 4v3l1 3v1l1 2 2 2 1 1-2-1-1-1-2-1v-2h-4l-1 1v-2l1-1v-3h1v-1l1-1h1v-1m-191-7h-1v1l-1 1v1l-1 1-3 6v1l-1 2-1 1-1 1v2h-1v2h1v-1l1-1 1-1 1-1h3v-1l1-1v-2l1-3v-5l1-1v-2m-50 2 1 1v5l-1 3v1l-1 3-1 1-1 1-1 1v-5l1-1v-4l1-2v-1l1-1v-1l1-1m61 9h-1l-2 2-5 4 5-4 2-1v-1l2-1m148-5-1 1v1l-1 2-1 1 1 1 1 1 1 1 1 1 1-1h1v-1l1-1 1-2-1-2-1-1-1-1h-1v-1m-133 1-1 1h-2l-1 1-2 1v1h-1v1h-2v-1l-1-1h-3l-2 1 2-1v-1h1-1 1v-1h10l1-1h1m113-15 1 1 3 2 1 1 1 1 1 1v1l-1 1v1l-1 1 1 1v1h1l2 1h2l1 1v1h-7l-2 1-2 1h-1v-2l1-2v-2h1v-2h2l1-1v-1h1v-2h-1l-1-1v-1l-3-2-1-1m-178 2-1 2v1l-1 2v2l1 1-1 1v1h-1l-1 2v-1l1-3v-2l1-3 2-4 1-1m52 6-1 1v2l-1 1v1l-1 1v1-1l1-1v-1l1-1v-1l1-2m15-27 1 1v3l-1 1 1 1v1h2v1l1 1-1 1v2l-2 2-1 1h-2l-1 1v3l-1 3v3l-1 1-1 2h-1l-2 1-1 1h-1l-1 1-2 1-1 1-1 1v-1l1-1 1-1v-1l1-1v-1l1-2 1-2 2-3v-1l1-3 1-1 1-2v-2l1-1v-3h-1v-1l1-1 1-2 1-1 1-2 1-1h1m-109 26v7h-4v-1l1-1v-2l1-2h1v-1h1m20 1h1v5-4l-1-1m-3 4 1-1m-12-6v1l-1 1v1l-1 1-1 2v1l1-1 1-3v-1l1-2m-15 5 1 2h1-1l-1-2v-1m337-9h1l3 1 1 1 1 1 1 1 1 1-2 1h-3l-1 1v1l-1 1v1l-1 1h-4l-1-1-1-1v-1l-1-1h-8l-2 1h-3l1-1h1l4-1h4v1h3l2-1 2-1v-1l1-1v-3h1m-40 6v2h-2v-2h1m13 1v1-2m40-5 1 1-1 1v-2m-185-27 2 1h1l1 1v11l2-2 1-2 1-1v-2l-1-1h-1v-2l1-1h1l1-1h8-1v1h-1v1l-1 2v3l-1 1-2 3-1 1-1 2-1 1v1l-1 1-1 1-1 2h-1l-2 2-1 1h-1l-1 1-1 1h-1l-1 1-2 1h-1l-1-1-1-1-1-1v-3l-1-1h-2l-1-1h-2v-3l1-1v-3l2-3v-1l1-1v-4h-1l1-1 3-1h1l3-1h1l3-1h1m-109 20-1 1v1l-1 2-1 2h1v-1l1-2v-1l1-2m172-30 1-1 1-1 1-1v-1l-1-1h6l12 5 1 1 3 2h2l2 2h2l2 1 1 1h1l1 1h1v-10l-1-1v-1l-1-2h-1v-2h-1v-1h2l1 1v1l1 1v1h1v1l2 1h1l2 1h5l3 2h1l1 1h1v3l-1 1v1l-1-1h-1l-1-2v-1l1-1v-1h-11v1h-1v1l-1 2-1 2v3l1 1v1l1 1 1 1v-1h2l2 1h1l3 1h1v1h1v1h2-2v1l1 2 1 1 1 1h1v-2h1v-2h-1 2l1 1 1-1h1v2h-3l1 1v2l2 3h-4l-3-1h-2l-1-1-2-1h-3l-1 1v2l-1 2v1-2h-1l-1 1v2l-1 1v3l-1 1v-1h-1v-1h-1l-1 1h-1l-1 1h-1v2h-1l-1-1h-6 3l1-1h1v-1l2-1v-1l1-1v1h3l1-1v-2h-1l-1 1 1-1h3v-1h1l1-1 2-2-2-2-2-1-3-1h-5v-1h-2l-1-1h-1v1l1-1v-1h1l-1-1v-1l-1-1h-2l-1-1h2v-3l1-2v-2l-1-1v-1h-3l-1 1h-1v1h-1v5l1 1-1-1h-1l-2-1-1-1h-1v-1l-1-1v-3l-1-1h-1l-2 1v1h-1l-1-1h-1v-1h-4v-1h-1l-1-1h-2 2m87 32h1l1 1v1l-1 1v-1h-2l-1-2v-1h1m-201-3-1 2v1l-1 2v1-2l1-2 1-1v-1m232 5h-1 1m-101-2 2 1h-1l-1-1-2-1m-218-45v2l-1 1v2l-1 1-1 2-3 3v2l-2 2v1l-1 1v4l-1 2-1 1-1 1-1 2-1 2-1 1v1h-1v2h2v1l1 1v2h-1l-1 1-1 2-1 2v1h2v-1h1v-1h1l1-1 1-1v-1l1-1 2-3 1-1 1-2 1-1 1-1 1-1v-1l1-1 1-1v-1l1-1 1-1 2-3 2-3 1-2 2-3 1-2 2-3 1-1 2-2v-1l2-2 1-1 1-2h1l1-2 1-1h2v1h-1l-1 2-1 1-1 1-2 3v1l-2 2-2 5-1 1-2 2-1 2-1 2v1l-1 1-1 1v1h-1l-1 2v1l-1 1-1 1h-1l1 1v1l1 1-1 1v2l-1 2 1 1v4-1h-1l-1-1v-1l-1 1-1 1v1h-2v-2h1v-2l1-1 1-2v-1h1v-2h-1l-1 1-1 1-1 1-1 1-1 1v1l-1 2-1 1-1 2-1 2-1 1-1 1-1 1v1h-1l-1 1h-2v-1h-2v-4l1-3v-4l1-1 1-2v-1l1-1 1-2v-1l2-3v-2l1-3 1-1v-2h1v-1l1-1 1-1v-3h1l1-3 1-2v-1l1-1v-1h1v-2h2v-2l1-1 1-1-1 2m93 40h-1v1l-1 1v4h1l1-1v-5m154 4-1 1v-1 1-1h1m-238-1h-1 1m47-9 1 1h1l1 1h-1l1 1v1h1l1 1v1l1 1-1 1-1 1h-2v-2l-1-2v-1h-1l-1-1-1-1v-2h1m-40 8h-1l-1 1 1-1h1m233 0 1-1m-171-6v1h1v2l-1 1v2h-1l-1-1v-1h-1v-4h2m43 3v2-3m-91 1h2-1l-1 1v-1h-1m-12-1v1-1l1-1m14 2h1l1-1v1h-1m189-7 1 2v1l1 1h2-2l-1 1h-2l-2 1-1 1v-1h1v-1l1-1v-3l1-1m-100 6h1m2-1v1h-1l1-1m-96-14v3l1 1h1l1-1v-1h1v-1l-1 1v1l-1 2v2h-1v1l-1 1v5-1l-1-1h-3v-1h-1v-1l-1-1h-1l-1-1 2 1h2l1-1 1-1 1-2 1-2v-1l1-2m218 8h-1l-1 1-1 2v1l1 1h1l1-1 1-1v-2h1l-1-1m-77-3h1l1 1h4l1 1h1v1l1 1 1 2 1 1v1h-1l-1-1-1-1h-1l-1-1-1-1h-3l-2 1h-1v1h-1l1-3 1-2v-2m-45 8v1-1l1-2m137-14 1 2v1l1 1v1h-1v2l1 2 1 3 1-3v-2l1 3v1l1 2v3h-1l-2-1-1-1v-1l-1-1v-3l-1-1-1-1-1-1-2-1h-1l2-2h1l1-1h1v-2m-70 11 1 1 1 1v2h-1v1h-1l-1-1-1-1v-1l-1-1h1l1-1m-47-19h1l1 1 3 2h1l3 2h2l-1 1h-1l-1 1-1-1h-1l-1-1v1l-1 1-1 1-1 1h-2l-1 1h-7l-1 1h-2l-1-1h-1l-1-2h-3v1h-2v1l-3 2h-2l-1 1v2h-2v1l-1 1v1h-1l-1 2-1 1v1h-1v-1l1-1v-1l1-1 1-3v-1l1-2 1-1v-1h-2l-1-1h-1l-2-1h-2v-1h-1v-1l1-1h3l1 1h1l1 1h2l2-1h2-1v1h10l1-1 3-1h1l2-2 3-2 2-1m18 17 1 1 2 1v1l2 1-2-1v-1l-2-1-1-1h-1m-121-18-1 2-1 5-1 2v1l-1 2v1l-1 1v2h1l1-1 1-1 1-1 1-2v-1l1-2 1-2-1 3-1 2-1 2-1 2-1 2v1l-1 1v1h-2v-2l1-2v-1l1-2v-1l1-3 1-2 1-5 1-2v-1m96 19-1 1v1h3l2-1h1v-1h-3m-31-9v3h-1l-1 1-1 1h-1l-1 1-1 1-1 1-1 1-1 1v-1l-1-1v-2h4v-1h-1v-1h-1l1-1 1-1 3-1 1-1h1m81 2 1 1h2v2l1 2 1 1h4l-2 1v1h-1l-3-1-1-1-1-1v-1h-3v-3h-1l-1 1h-1l-2 1 1-1h1l1-1h1l2-1m-15 5-1-1m5 1v-1l-1-1 1 1m-5-5v1l1 1v2l-1-2v-2l-1-1m-121-13v1l-1 1v3l-1 3-1 2-1 3 1-3 1-2v-3l1-1v-2l1-1v-1h-1m-8-14-1 4v1l-1 2v3h2l2-1h1v1h-1l-1 1v1l-1 1v1l-1 1-1 2v1l-1 1-2 7v1-4h-2l-1 1v1-2l1-4 1-2 1-4 1-1 1-4 1-2 1-3v-1l1-3h1m160 28 1-1m-39-1h1l3 1h-2l-2-1m-145-7h1v3l-1 1v3h-1v1-1h-1v-6l1-1h1m106 7v-1m71-1h-2l-1 1h-2 3l2-2m-70 2h-1l1-1h1m1 0h1m55-20 1 1 1 2v1h1v2l-1 1v1l1 1h4l1-1h1l3-2 2-1v-1l1-1v1l-1 1-2 3v1l-1 1-1 1-1 1-1 2-1 1-1 1v1l-1 1v1-1l-1-1v-4h-2l-1 1v1l-2 1h-2v-1h1v-2h-1l-1-1h-1l-2 1h-1l-1 2v-1l1-1h1l1-1h3l1-1h1v-1l1-1v-1l1-1v-6l-2-2m15 20h-2 3m56-76v1h1l2 1 1 1 1 1h1v1h2l1-1h-1v1h1v1l-1 1-1 2-1 1-2 3-1 1-1 1-1 1-1 1h-1l-1-1h-2v-1l-1 1h-1v2l-1 1v1l-1 3-1 1-1 3-1 1v1l-1 3v5l-1 2v1l-1 1v2l-1 2v3l-1 1v1h-1v1h-1l-2 1h-1v1l-1 1v2l1 1v4l1 2v1l1 1h3l2-1 1-1 1-1 1-1h2l1 1v1l2 1h2l2 1 2 1 1 1 1 1v1l1 1v4l1 1v1-1l-1-1-1-1-1-1-1-1-5-4-1-1h-1l-1-1h-1v-1h-2v-1h-2l-2 1h-1l-2 1-1 1h-1l-1 1h-1v-1l-1-1-1-2v-1l-1-2-1-2-1-1v-1h-1l-1 1-1-1-1-1-1-1-1-1-2-1h-1l-1-1h-1l-1-1v-1h6l1-1 1-1h1v-1h2l1-1v-1l1-1v-1l1-1h1v-2l-1-2-1-2v-1h-1l1-1v-9h1l2-1h2l1-1 3-3 1-1 1-1 1-1 4-5 1-1 1-1 1-1 1-1v-1l1-2h-1l1-1v-1h1l1-1h1l1-1m-80 75v-1m-30-4-1 1-3 1-1 1-1 1 2-1 1-1 2-1 1-1 2-1m23 3h1m0 0h1m0-36v5l-1 1v1l-1 1-3 4-1 2-1 2-1 2v2l-1 1v4l-1 4-1 2v4h1-2l-2-2-3-3-3 1h1v-3l1-1v-4h-2v-3l1-2v-2l2-3v-2l1-1v-1l1-1v-1l1-1v5l-1 1-1 5v6h1v-1l1-1 1-2 1-1 1-2 1-2 2-3v-1l3-4 1-2 1-1 1-2v-1h1v-1m-121 33-1 1v1-2h1m93-16v1l1 1v6l-1 1-1 1-1 1h-2v-1h-1v-4l1-1v-1l1-1 1-2 1-1m60 1v2l-1 1v1-1l1-1v-3m-15-4v4l1-1h1l1-1h3l1-1h2l1 1h-2l-1 1h-1l-1 2v1l-1 1-1 1h-1v-1l-1-1-1-2v-4l1-1m-5 7v1h1l-1-1h-1m17-4h1-2m-117-14h1v5l-1 1v2l-1 2v2h-1v-5h1v-6l1-1m-35 8v1l-1 1v1-1l1-1v-1m250-151v6l-1 7v5l-1 1v5h-1v2h-1l1 1v1l-1 1v3l-1 1v1l-1 1v1h1-1v1l-1 2-1 1-1 2-2 3v1l-1 1h-3v-1h-1v1l-1 1v2h1l-1 1-1 1v1h-1l-1 1-1-1v-4l1-1v-2l1-3v-1l1-1h1v-1 1h1v1l1 1h1v-3l-1-1-1-1-1-1v-2l1-1 1-1 1-1 1-1v-5l-1-1h-2l-1 1-2 2h-1l-1 1v2l-1 1v2l-1 3v4l-1 1-1 1h-1l-1 1h-2v1h1l-1 1-1 1-1 2v5h-1l-2-1h-5l-1-1h-1v-4h-1l-1 1v1l-1 2v1l-1 1v1l-1 2-1 1-1 2-2 2-1 1v1l-1 1v1l1 1 1 1h1v1h1v2l-1 2-1 3-1 1-1 3-2 3-1 1-1 1v1l-2 2-5 6-7 7-1 9v13h-1l-1-1v-1l-1-1h-1l-1 1v1l-1 1v1l-1 4v1l-1 2v1l-1 2v1l-1 1v1l-1 1-1 1-1 1-1 4h-1l-1 2v1l-1 2-1 1v4h-3l-1-1h-5l1-1h4v-1l1-1h1v-3l1-2v-2h1l1-2 1-1 1-1 2-3v-1l2-4v-1l1-1v-6l1-1v-1h1l1-2 1-1v-1l1-2v-1l1-3v-1l1-6 1-3 1-2 2-3 1-2 3-3 2-1 2-3 1-1v-1l1-1h1v-1h-2l-2-1h-3l-7 1-2-4-2-5-1-3v-4l1-2v-1l2-4 1-1v-3l-1-1v-1l-1-2v-2h2l1 1h4l2 1h1l1 1v2h1l1-1 1-1v-1l1-1v-4l1-2 1-1 2-2 2-1v-1l1-1 1-1h1l1 1v1l1 1h2v-1l2-2v-1l1-3 1-1 1-3v-1l1-2v-3h1v-2h1v6l1 2v1l1 2v2h2v-1h1l1-1h1v1h1v-1h1l1-1v-1l1-1 1-1h1l1-1h4l2-1 1-1 1-1v-1l1-2 1-1h2l2 1v1l3 1h1v-1l1-1v-8h1v-1l1-1v-1h1l2-2v-1h1l-1-1-1-2-1-1 1-2v-2h2l1-1M404 791v-1h2m11-41v2l-1 2v2l-1 1v3l-1 1-1 3v1l-2 4-1 2v1l-1 2-1 2v3h2v4l-1 1v1l-1 1-1 1h-2v2h-3v-5l1-2v-1l1-2v2l-1 2-1 1v4h1l1-1v-1l1-1v-2l1-2 1-2v-1l1-1v-2l1-1v-1h-2v2l-1 1 1-2v-4l1-2 1-2 1-1v-1l1-4 1-2 1-3 1-1v-1l1-2v-1h1v-1m-155 38h-1l-1 1 1-1h1m213-89-1 1v1h2v4l-1 2-2 2-2 2 2 1h1v1h1v1l-1 1-2 2-2 1-1 1v1l-1 1v2l-1 1-1 1h-1v3l-1 1-2 3-1 1-1 1-1 2-1 2-1 3v2l-2 4-1 2v1h-1l-1 2v4l-1 1v1l-1 3-1 1-1 3h-1v1l-1 2h-1v1h-1l-1 1-1 4-1 1-1 3-1 1-1 2-1 1v1h-1v-3l1-1v-2l1-4 1-2 1-3v-1l1-1 1-2v-1l1-1 1-1v-2l3-6 1-3 1-3 1-2v-1 1h2l1-1 1-1v-1l1-2v-2l-1-1v1l-1 1h-1l2-3 1-1 1-2 1-1 1-3 2-3 3-6 1-2 2-3v-1l1-2 1-1 1-2v-4l1-1 1-2v-1l1-1 1-1h1m-175 79 1 1-1-1m4-22 1 1v2l-1 1v6l-1 1v4l-1 2v2l-1-1-1 1v1-5l1-1v-5l1-2v-2l1-1v-3l1-1v-1m80 0h1v14l-1 1v2l-1 1v1l-1 1v1h-1v-4l1-1v-10h1v-6h1v-1m-106 4v1l1 2v1l-1 3v1l-1 3v5h-1v-16h1v-1m146 10h1v2h-1v2l-1 2h-1v1h-1v-5l1-1 1-1h1m-20-17v2l-1 3v2h-1l-1 2v3h-1v1l-1 1-1 1-2 3v-3l1-2 1-1v-1l2-4 1-1 1-3v-1l1-1v-1h1m45 5h-1v2h-1l-1 3-1 1v1l-1 2v2h2v-1h2l1-2v-2l1-1v-5h-1m-22 3h1l1 1v2l-1 1h-2l-1-1h-1l-1-1 1-1 2-1h1m-4-17v3l-1 1v2h-1v-6h1m-44-22v1l1 2v2l1 2v4l-1 3v4l-1 2v2l-1 1-2 5 1-8v-6l1-2v-12m62 15v2l-1 2v1l-1 2-1 1-1 2v1h-1v1h-1v-3l1-2v-3h1l1-2 1-1v-1h1m-108 4v2h-1v1l-1 1-1 2h-1l-1 1h-1v-1h-1v-4l1-1h1l1-1h3m-47-2v1l1 1 1-1v2l-1 1v1l-1 1h-1v-4l1-3m12 3v2l-1 1-1-1v-2l1-1m-7-32-1 1v1l-3 3-1 3-1 1-1 3v1l-1 1v6h1v-1h2v3h-1v3l-1 2v-1l1-1v-5 1h-1v1l-1 1-1 1-1 2-1 3v1l-1 2-1 2v1h-1v1h-1v-3l1-1v-2l1-1v-2l1-2 1-4v-1l1-1 1-2 1-2v-2l1-1v-2h1v-5l2-1h1v-2l1-1 1-2 1-1v-1m-9 37-1 1 1-1m7-6v2-1l-1-1m239-53h1v8l-1 1h-2v6l-2 3-1 1-1 2v1l-1 1v1h-1v2l-1 1-1 1-2 3-1 1-2 1v1h-1l-1 1h-2l-1 1-1 1-1 2v1l-1 1v1h-1v1h-2v2h1v2l-1 1v1h-2v-3l-1 1h-2l1-2v-2l2-2h1v-1h1v-1l2-4v-1l1-2 1-1v-1l2-1v-1l2-2 2-2v-1l1-2 1-1v-1h1v-1l1-1 3-4h1l1-2 1-1 1-1 1-1 1-1v-3l1-1v-1l1-1v-1h1m-113 36 1 1 1 1v3h-1v3h-1v1h-2v-2h-1l1-1v-5l1-1h1m39-8h-1v4l1 1 1 1v-1l1-1v-3l-1-1m16 1h-1v2h2v-2h-1m-5-9h-1l-1 1v3h2v-1h-1v-1h2v-2h-1m-173-3v3h-1l1-1v-2l1-1 1-3m3-9v3l-1 1-1 3v1l1-3v-2l1-3 1-1m0 0v-3m236-5v4l-2 1v1h-2v-2l1-1 1-1v-1h1v-1h1m-235 4v-5 5m226-73 1 1v1l1 2v2l1 1v1h2v-1h1v-2 11l1 1 1 1v3l1 2v3l1 1v8h-1v1h-8v-19l-1-2v-3h1l1-1-1-1v-4l-1-1v-1h-1v5l-2 2v2l-1 1h1v-1h1l-1 1v1l-1 1v1l-1 2v11-3l-1-3v-5h-1v-3l1-2v-5l1-2v-4l1-1v-1l1-1h3m9-2v1-1l1-1m26-23v1l2 2 1 1 1 2v10l-1 1v1l-1-1h-1v-1l-2-2-1-1-1-1-1-2v-5l1-1v-3l1-1v-1m7-79v-1 1m-173 75v3l-1 1v2h-1l-1 1h-1v-1h-1v-1l1-1h1v-3h1v-1h1m195-29 1 2v1l2 3v1l1 2 1 3 1 2 1 3 1 2 1 2 1 1v3h1v1h-1v-1l-2-2v-1l-2-3-1-1-1-1-1-1-1-1-2-2h-2l-1-1-3-2-1-1-1-1h-1v-1h-1l-1-1-1-2-1-1h1l1 1 3 1 2 1 1 1h2l1 1h4v1l1 1v1h1v-2l-1-1v-1l-1-2v-1l-2-3v-1m3-48 2 1 1 1v3l1 5v-1 1l-1 1v2l-2 1v1h-1v1l-3 4v1l-1 2v1l-1 2v10-2h-2l-1 2v1l-1 1h-2l-1 1h-8l-2 1h-1l-2 1-1 1-1 1h-1v3l1 1h1l1 1 1 1h2-3v-1h-1v1h-1v4l-1 1v1l-1 1h-1l-1-1v-8h1v-1h-1v-1l1-1v-1h1l-1-1h-1v-1l-1-2-1-1v-1l-1-1h1l1 2 1 1v1h4l1-1h1l1-1v-2l-1-1v-3l-2-4-1-1v-2l-1-1v-4h2v1l1-1v-4l1-1v-2l2-1v-1h1v-4l-1-1v-1h-1v-1l1 1 1 1h1l1 1v8l1 1h2v-2 3l1 1v1h1v-5l-1-1-1 1v-1l1-1h1l1-1h1l3-1h6l-2-3-1-1v-2h1l1 1 1 1 2 1v1l1-1v-7h1m-26 28 1 1 1 1v1h3v-1h-1v-1l-1-1-1-1h-1m5-6-1 1v3h2v-2h1v-2h-1m12-6-2 1v1l-1 1-1 3h-1v1l1 1h2l1-1h1v-1h1v-6m14-10-1 1 1-1m1-20v1l1 2 1 1v2h1v1h1v1h1l-1 1-1 2v2-1h-1l-1 1-1 1-1 1-1 1v-1h-1l-1-2v-1h1l1-2v-1h-4v-1l1-1v-1h3l1-1 1-1v-1h-1l-1-1v-2h1m-6 8v1h1v4l-1 1v-2l-1-2v-2h1m13-23v12-11l-1-2m-9 4 1 1h1l1 1v1h1v2h-1v1h-2v-2l-1-1-1-1-1-1h-1 1v-1h1m-5-16 2 1h2v-1h1l1 1v1h3v-2h1v1l1 1v4h1v-2 2l1 2h1-1v1h1v2h-3l-2-1v-4h-1v-2h-1v-1h-1l-1 1h-1l-1-1h-1l-1-1h-1v-1l-2-2m13 1 1 1-1-1-1-2m-14-3 1 1v1l-1 1v1h-1l-1-1v-3h1v-1h1m20-18-2 1h-2l-2 1-3 1-1 1-1 1-1 2v12h-5l1-1 1-1h-1v-1l-1-1-2-1v-1h-1l-1-1-1-1-2-1-1-1h-2l-1-1-1-1v-1l-1-1h1l1 1 2 1 1 1h4l2 1h1l1 1h3l1-1v-1l1-1v-1l1-1v-1h1l1-1h2l3-2h2l1-1h3m-10 7-1 1v3l-1-2h1v-2h1m-19-52-1 1v9l-1 1-1 1v1h1l1-1h5v7h5l1-1 1 1h2v2h1l2-1h1v-1l1-2h-1v-1h2l1-1 1-1v-1l1-2v-1l1-1v-1l1-1h1l2-1 1 1h1l1 1h4l1-1 1-1h2v1h1v-1l1-1v-4h1l2 1h1l1 2 2 2v3h2l1-2v-1h1v-1h4v2h2l1 1 2 1 1 1h5v1h1l2 2 1 1 1 2 3 5 1 1 1 1v1l1 1-1 1v1l1 1h-2v1h-2v2l-1 1-2 1-2 1-2-2v-1l-1-3v-1l-1-2 1-1-1-3v-3l-1-1-2-1-1-1-2-2h-2l-2-1h-1l-1 1h-1v1l-2 1-1 1h-1v-1h1l1-1v-3h-1v1h-1v1h-1l-1 1-1-1-1-1v-3h-1l-1 1h-1l-1 1-1 1-3 1v1h-1l-2 1-1 1h-1l-1 1v1l-1 1v1h1v1h3-8l-1-1h-5l-1 1 1 1h2v1h6l2 1h5l1 1h2l1-1v-1h-1v-1h-2 4v1h2l-1 1v1h-1l-1 1h-5l-2-1h-2v1l1 1h1v1l2 1h1l3 2 1 1 1 1 1 1h1l1 1h1l1-1h4l3 1h1l5 2h7l2 1h1l1 1h4v-2l1 1 2 1 1 1h1v1h-5v3h1-1l-2-1h-3v1h-3v1h-1 1-4l-1-1h-3l-1-1h-4l-2 1v-1h-7 2l1-1h2l-1-1h-1l-1-1h-1l-3-1h-8l-1-2h-1v-1h-1l-1 1h-3l-1-1h-2l-2 1-1 1h-2v-3h-2v-3h-1l-1-2h-1l-1-1h-11v1h-1l-1 1h-1l-1 1h-6v3l1 1h1v2h-1v-1h-1v1l1 1h1l1-1h1v4l-1 1v4h3v1l1 1v-1h-2v1h-1l-1-1h-1l-1-1h-1l-1-1v-1l1-1v-4l-1-1-2-2v-1l-1-1h-1v-1h-1l-1-1v-5l-1-1-1-2v-6h1v-1h2l2-1 1-1v-1l1-1v-1l2-2 1-1 2-3 1-1 2-3 2-1 1-1 1-1h1l1-1m25 49 2-1m6-1h-1l-3 1h-1 2l2-1h4m36-1v1h-4 3l1-1m0-1 1 1h-1v-1m-22-6h-2v1h-1v2h7l1 1h2v-2h-1v-1l-3-1h-3m18-2v-1l-1-1m9-1h1v1l-1-1v-1m2-2v3-4m-94-5h-1v2h2v-2h-1m35-19v1h1l-1 1v2h-1l-1 1v1l-1 1h-2l-1-1h-1l-1-1h-1v-1h1v-1h2l1-1h1l3-1v-1h1m9-11h2l1 1h1l1 1 1 1 2 1h2v1h-1l-2 1-1 1-2 1-1 1h-1v1l-1-1-1-1-1-1h-1l-1-1h-1l-3-1-1-1h-6l-1 1h-3l-2-1h-6 1l2-1h2l1-1v-1h1v-1l1-1h4l2 1h3l1 1h1l2 1 4 1 2 1h3v-1h1v-1h-1v-1h-1l-1-1h-1l-2-1m-30-11h1l2 1h3-2l-3-1h-2m-4 0h2-4M417 900h1-1v2-2m76-61 1 1v2-2m-74-16h1m-28-3h1-1m165-326-1-1-1-1-1-1h-3l-1 1-2-1-2-1v-1h-1l1-1h1v-1l-1-1-1-1v-3l-1-1-1-1v-1h-1l-1 1v1h-3v2h1v1l1 1v3l1 1v2l1 1v1l1 1v2h1v3l1 2v8l1 2v3l1 2 1 1v12l-4-4-1-1-1-1-1-1-1-1h-4l-1 1 1 1v1h1v1l1 1h3v2h1l-1 1h-1v2l-1 1h-1l-1 1-1 1v9l1 1v9l1 1-1 1-1 1h-1v1h-1 1v1l1 1v8l1 1v1h1v2l1 1v5l-1 1v3-1h-1v-1l-1-1-1 1-1 1-1 1-1 3-1 2-1 3-1 1v4l-2-4-2-5v-8h1v-1 1l1 1 1 2 1 1h2v-3l-1-1v-3l-1-3v-2l1-1v-1l1-1 1-2v-14l1-3v-5l1-2v-19h-1v-4l1-1v-1h1l1 1 2 1 1 1 2 2 1 1h1v-1h1v-2l1-1h-1v-1l1-1 1-2-1-1-2-2-1-2v-2l-1-1v-6l-1-2v-1l-1-3v-4h-1v-2l-1-1v-1l-1-1v-1h-1l-1 1h-1l-1 1-1 1-1 1h-2l-1-1v-1l1-1 1-1 1-1 3-1 1-1h4l2-1h3l1-1h1l1-1 1 1 1 1 1 2h-1v2l-1 1v2h1l1 1v-1h1v-2h1l1 1 1 1h2v-5h2v1l1 1v3h1v1l1 1h-1v1h-1l1 1v1l-1 1-1 1v3m-25-119 1-1 2-2-2 2-1 1-3 1-1 1 1-1Z"/><path fill="rgba(237,174,230,1)" d="M236 952v1l-1 3v3h-1l-1 1v3l-1 1v1h-1v1l1-1h1l1-1 2-1 1-1 2-1v-1 5l-1 1v1l-1 1h-1l-2-1h-1l-1-1-1 1-1 1-2 3v-4l1-2 1-1 1-1v-1l1-1v-1l1-1 1-3v-1l1-2 1-2m5 5-1 1v1-1l1-1v-1m5 1v1h-1 1m619-12v8l-1 1h-1v-7l1-1v-1m-620 8h1-1v-1m11-9 1 1 1 1h3v1l-1 1-2 3-1 1v1h-1l-1 1-1-1v-4h1v-4l1-1m-5-3h-2l-1 1h-2l-1 1-1 1v1l-1 1v6h1l-1-1v-2l-1-1v-1l-1-1-1-1v-3h1v1h1l1-1h4v-1h3l1-1m-15 3-1 1v2l1 1v1-1l-1-1v-2l1-1v-1m0 0v-1m1-1 1-1m1-1 1-1m-19-10h1l1 1h1l1 2h1l1 1v1h-2l-2-1h-2l-1 1v1h-1v1l-1 1h-1l-2 1h-5l-1 1-1-1h-2v-1l-1-1-1-2v-3h1l1 1 1 1v1l1 1h4l1-1h3v-1h1l1-1 1-2v-1h1l1-1m42 3h1v6l-1 1h-1v1-2l1-1v-1l-1-1v-1h-2l-3 1h-2v-1l-2 1 2-1h1l2-1 1-1h3m-21 7h1m235-49h1v2l2 1 1 1 2 1h1v1l1 1v1l-1 1h-1v1l-1 1v11h1v1l1 1v1l-1 1v4l-1-1h-1l-1 1h-1l-1 1-1 1-1 1v2h1l2-1 1-1h1v-1h2v2l1 1 1 1 2 2 1 1 2 1 1 1h4l1-1v-2h1-1v6l1 1v2l-1 1v1h-1l-1-1v-3h-1v-1h-1l-1-1h-4v-1h-1v-1l-1-2h-1v-1l-2 1-2 1-2 3h-1l-1 1v1h-1l-1 1h-4v-1h-1l1-1 2-2h1l1-1h1l1-1v-2l-1-1h-3l-1-1h-16l-1 1h-1v1h-1l-1-1h-1v-1h-1v-1h3l1-1h2l1-1h2l2 1h7v-1h1l1-1 1-1v-5l1-3v-1 1l-1 3v4h1v1l1 1h3v-1h1v-1l1-1 1-2 1-3 1-2v-1l1-5v-9l-1-1v-2h-1l-1-1h-1l-1 1-1 1v6l-1 2v-4l-1-3v-5l1-1h2m-234 49h1m0-1h2m0 0h2m3 0h-2 1m-12-6 1 1h1v1h-5l-1 1h-2v-2l1-1h3m262-4v4-4m-295-2h1v1h1l1 1v3h-2v-1h-1l-1-1v-1h-1v-2l1-1m28-53v7l-1 2v4l-1 2-1 6v3l-1 3v7l-1 2v6l-1 2v5l-1 1-1 1h-1l-1-1-1-1v-3l1-3v-1l1-1v-4l-2-1h-1v-1h-1v-8l1-3v-3l1-1v-1h2v-3l1-1h1l1-2v-2l1-2 1-3v-2l1-2v-1l1-1 1-1m219 43 1 1 1 2v1h1l-1 1h-2l-1-1v-3l1-1m8-29h1l1 1 2 2 1 1 2 1 1 1h2v1l3 2v1l1 1v1l1 1v5l-1 1v1l-1 1-2 1h-1l-1 1v2l-1 1v1h-1l-1 2-1 1-2 1-1 1h-2v-1h-1v-1 1l1-1h1l2-1v-6l-1-1v-3l4 1h4l1-1v-1l1-1 1-1h1v-3h-2l-1 1 1 1h-1v1h-1v-1h-2v-1l-1-1v-1h1v-4l-1-1-1-1-1-1-3-3h-1l-1-1-1 1-1 1v-2l1-1m-39 19v1h1l1 3v1l1 1v1h2v-1l-1-1h1v3h2v1h1v3h-4l-2-1-1-1-1-1-1-1-1-2-1-1v-1h3v-4m-211-8v1l1 1v15l-1 1v2h-1v-2l-1-1v-13l1-1v-3h1m249 18v-1l-1-3v-1 1l1 3 1 1h-1m-171-10h1v2l-1 1-2 2v1h-2v1h-2v-2l1-1v-1l2-1v-1l2-1h1m191 5v1-1m-54-6h1-1l-1 1v2-2l1-1m149-532h1l1 1h3l1 1 4 1 3 1 1 1 4 1h1l3 2h2l4 2 2 1 1 1h3v1h1v-1h-1l-1-1h-1l-2-1-1-1-2-1h-1l-4-2 2 1 2 1 3 1 2 1 2 1h1l1 1h1v1h1v1h-1v1h-3l-2-1-4-1-2-1h-1l-1-1h-3l-2-1h-4l-1 1v1h-1v1l-1 1h-2l-2 1h-1l-3 2h-1l-1 1-1 1-2 1-2 3-1 1-2 3-1 1-2 2v1l-1 1v1l-1 1-2 1h-2v1h-1v6l1 2 1 1v5l1 1h1v1h1l1 1v1l2 2 1 1v4l-1 1v1l1 1h1l1 1h1l1 1h1v-1h2v1h1v1l1 1v1l1 1 1 1h2l1 1 2 1 1 1 1 1h1v1l2 1 1 1v1h1l-1 1-1 1h5v-12l1-2 1-1 1-1-1 1-1 1v8l1 4 1 2 1 2v1l1 1 1 1v1-1h-1v2h-3v-1l-1-1h-1v1h-2l-2-1-2-1 2 2v1h1l1 1h1l1 1h1l1-1h1v1h1v2h1v4l2 1h3v3l1 3v3l1 1v12l-1 1v2h-1v-1h-1v-1h-1v-2l-1-1-1-2v-1h-2v2l1 1h1v1l-1 1-1 1h-3v1l-1 1v1h4v1l-1 2h-1v1l1 2h1v1l1-1 1-1 1-1 1-1h1v1l-1 1-1 2v1l-2 2-2 3-2 3-1-5v-3l-1-1-2-1h-1v7l-1 1v-1l-2-1-1-1-1-1h-1v2l1 1 2 3h-6l-3 1h-1l-1 1h-1l-1 1v3h-2l-1-1v-8l-1-1h-1l-1-1-1-1v-6l1-1 1-1v-1l-1-1h1v-1h1l-1-1v-1h-1v-3l-1-1v-1h-2v5h-2l-1-1-1-1h-1v2h-1v1l-1-1h-1v-2l1-1v-2h1l-1-2-1-1-1-1-1 1h-1l-1 1h-3l-2 1h-4l-1 1-3 1-1 1-1 1-1 1v1l1 1h2l1-1 1-1 1-1h1l1-1h1v1l1 1v1l1 1v2h1v4l1 3v1l1 2v6l1 1v2l1 2 2 2 1 1-1 2-1 1v1h1l-1 1v2h-1v1h-1l-1-1-2-2-1-1-2-1-1-1h-1v1l-1 1v4h1v19l-1 2v5l-1 3v14l-1 2-1 1v1l-1 1v2l1 3v3l1 1v3h-2l-1-1-1-2-1-1v-1 1h-1v8l2 5 2 4-3 6-1 1-2 4v2l-1 2v1h-1v1h-2v-1l-1-1v-2l-1-2v-1l-1-1h-3l-1 1v1l-1 1v4l-1 2v5l-1 2v3h1v5l1 3v5l-1 1h-2v2l-1 2 1 1 1 2 1 1h-1v1l-2 2h-1v1l-1 1v1h-1v8l-1 1v1h-1l-3-1v-1l-2-1h-2l-1 1-1 2v1l-1 1-1 1-2 1h-4l-1 1h-1l-1 1-1 1v1l-1 1h-1v1h-1v-1h-1l-1 1h-1v1h-2v-2l-1-2v-1l-1-2v-6h-1v2h-1v3l-1 2v1l-1 3-1 1-1 3v1l-2 2v1h-2l-1-1v-1l-1-1h-1l-1 1-1 1v1l-2 1-2 2-1 1-1 2v4l-1 1v1l-1 1-1 1h-1v-2l-1-1h-1l-2-1h-4l-1-1h-2v2l1 2v1l1 1v3l-1 1-2 4v1l-1 2v4l1 3 2 5 2 4 7-1h3l2 1h2v1h-1l-1 1v1l-1 1-2 3-2 1-3 3-1 2-2 3-1 2-1 3-1 6v1l-1 3v1l-1 2v1l-1 1-1 2h-1v1l-1 1v6l-1 1v1l-2 4v1l-2 3-1 1-1 1-1 2h-1v2l-1 2v3h-1l-1 1v1h-4l-3 1h-8v1l-1 1v4l1 2 1 1v1h1l1-1 1-1v-1l1-2h1l1-1h5l1 1h1v4l-1 1v3l-1 1-1 1v1l-2 1-3 2h-1l-1 1h-4l-1-1v-1l1-1v-2h-1v-1l-1-2-1-1-1-2h-1v-1h-1l-1 1-2 4v2h-1l-1 2v1l-1 1-1 3-1 1-1 1v1h-1l-1 1h-9v-1h-1v-4l1-2 1-4v-4l1-1v-2l1-2 1-2 1-2 3-4 1-1v-1l1-1v-5l-1-1v1h-1v1l-1 2-1 1-1 2-3 4v1l-2 3-1 2-1 2-1 1-1 2-1 1v1h-1v-6l1-5 1-1v-5l-1 1v1l-1 1v1l-1 1v2l-2 3v2l-1 2v3h2v4l-1 1v3h-1l-3 2h-1l-3 1-1 1-2 1-1 1-2 1-2 1h-1l-1 1h-1l-3 1h-4l-1 1v1h-2l-2 1h-2l-1-1h-1l-1-1h-3l-1 1v1h1v1h2l2 1h1l1 1h2v1l-1 1-1 2v1l-1 3-1 1v1l-1 1v1h1v-1l1-1 1-2h1v-1l1-1v-1h2v-2l1-1h2l3-2v-1h2v-1h3l1 2h1l1 1h2l1-1h7l1-1h2l1-1 1-1 1-1v-1l1 1h1l1 1 1-1h1l1-1h3l1 1h1l2 1h3l1 1h1l1 1v2l1 2-1 1 1 1v3l-1 2-1 1v-4h-1l-1-3v-4h-1v-1h-3l-1-1h-1l-1-1h-2v1h-2l-1 1h-1v1h-4l-1 1h-7l-3 1h-7l-4 1-2 1h-1l-2 2h-1l-2 2-1 1-2 2-1 1-1 2-1 1-1 2-1 1-1 2v1l-1 2v1l-1 1h-2v-4h1v-2l1-2 1-2 1-1 1-3 1-2v-1l1-1v-5l-1-1v-1l-1-1h-2l-1 1v1l-1 1v1l-1 2v7l-1 2-1 1-1 3v1l-2 3-1 2v1l-1 1v3l-1 1v1l-1 1-1 1-1 2-1 1-2 3-2 1v1l-2 2h-1l-1 1-1 1-4 2h-1v1h-1v1h-1v1h2l4-1 2-1h3l1 1v1h1-10v1h-1 1-1v1l-3 2-2 1v1l-2 1-5 4-1 1-1 2-1 1h-1v-3l1-2h-2v1h-2v1h-1l-1 1-4 2h-2l-1 1h-3l-1 1-1 1v1l1 1h5l1-1 3-1h2-2l-1 1h-2l-4 2-1 1h-1l-1 1h-1l-1 1h-1l-1-1v-4h1v-1l2-3 1-1 1-3 1-1 1-2 1-2 1-1v-1l1-1v-1l1-1v-7l1-2v-2l-1-1v1l-2 1h-1l-1 1-2 1-1 1v1h-1v1l-1 1-1 1v2l-1 3h-1v3l-1 1h-1v3l-1 1v1l-2 2v1l-1 1v4l-1 2v1h-1l-1 1h-2v-3l1-2v-1l1-4 1-2 1-3 2-5 1-1 1-4h1v-2l1-2v-4l1-4v-1l1-1v-2l-1-1v-3l1-2v-3h-2v-2h-2v1l1 2v5l-2 2v1l-1 2-1 2v1l-1 2-1 3v1l-1 2v1l-1 3-4 8v1l-1 2-1 2-1 2v1l-1 1v2l-1 1v1h-1l-1 1h-1l-1-1v-4l1-2 1-5v-4l1-1v-3l1-2v-1l1-1 1-2h1v-1l1-1-1-1v-2l1-2v-1l1-2 1-3v-1l1-2 1-2v-1l1-1v-1h-7l-1 1v2l-1 1v1l-1 2-1 1-1 1v1h-1l-1-1v-6h-1l-1 1h-1 1l1-1 1-1 1-1h3l1-1h7l1-1h3l1-1 1 1h1l1 1v-2l-1-1v-1h2l1 1h2l2 1h3l1 1h1v1h-1v1h-1v1l-1 2v2l-1 2v2l-1 1v3h1l1-1 1-1 1-1 1-2v-1l1-3 1-2 1-2 1-2 1-2v-1h2v-3l-1-1h-1l-1-1v-2l1-1 1-1 1-1h1l1-1v-1l1-1 1-2v-1l2-4v-1l1-1v-1l1-1v-1h1v-2l1-1v-2l1-2v-1l1-4 1-2 1-3 1-2v-4l-1-1h-1v1l-1 1-1 2v1l-2 4v1l-1 1v1l-2 3-2 2v1l-1 2v1l-1 3v1l-2 3-1 2v1l-2 3-2 3v1l-1 2v1h-1v1l-1 1v1l-1 1-1 1h-1l-1-1v-1h-1v-1l-1-1v1h-1l-1 1v1l-2 1h-1v1h-1l-1-1h-4 3v-1h1v-1h1v-2h1v-2l1-1 1-2v-2l1-2 2-5 1-2 1-3 1-2 1-3v-3l1-1v-1h-2v2h-1v1l-1 1v1l-1 2-1 3-1 2-1 2v1l-1 2-1 1-1 1-1 1h-1v-2l1-1v-1l1-2v-1l1-2 1-5 1-2v-2l1-1v-3l1-2v-1h-1l-2 1h-2v-3l1-2v-1l1-4 1-2 1-3 1-1v-2l1-1v-2l-1-1h-1l-1 1-1 2-1 1-1 1-1 1h-1v-1l1-1v-2l1-4 1-1v-1l1-2v-1l1-3 4-10 1-2 1-3 1-2 1-3v-1l1-3 1-1v-3l1-2 1-1v-1h1v-4l1-2 1-1v-1l1-1v-2l1-3v3h-1v2l-1 2-1 3-1 1v3h-1v2l-1 1v1l-1 2v2l-1 3-1 1-1 7-1 3-1 4v4l-1 2v2h-3l-1 1h-1v3h1l1 1v1l2 2h1l1 1h2l1-1h1l1-1 1-1 1-1v-1l1-1v-3l1-2v-9l1-4v-8h1v1h-1v16h1v-5l1-3v-3 12l-1 1v4l-1 3v1l-1 4-1 2-2 4-1 2-2 4v4l1 1v1h4v2l1 1h-1v2l-1 2v1h-1l-1 3v2l-1 4-1 2v2h-1l-1 3v2h1l1-1v-1l1-1h1l2-4v-1l2-4v-2l2-4 2-2v-1l2-2 1-1v-1h1l1-1v-5l1-3v-13h1v-1l1-1v-3 8l-1 5v7l-1 2v3l-1 2-1 2v1l-1 1v2h2v-1h1v-1l1-1v-1l1-1v-2l1-2 1-2 1-3v-3l1-2v-5l1-3v-13l1-4v-16l1-1v-3 6l1 1v7l1 2v21h1v-3l1-3v-1h1v-1h1v-3 3l1 1v-2l1-1v-3l1-2v-4l1-1v-6l1-1v-2l-1-1v-1 1l-1 1v3l-1 1v2l-1 2v3-3l1-4v-7l1-2v-1l1-2 1-2h1l1-2 1-1h7v4l-1 1v2l-1 4v2l-1 3v3l-1 4v1l-1 3v1l-1 2v2h-1v2l-2 2h-1l-2 4-1 2-1 1v2l-1 2v5l1 1 1 1h1l1 1h1v1h-1l-1 1v1h-1v6l-1 2v1l-1 2v1l-1 2-1 2-3 7v2l-1 1v2l-1 1-1 4-1 2-1 1-1 1-1 1-2 1-1 1h-1l-1 1-1 1v1l1 2 1 1h3l-3 7-1 5-1 2v2l-1 2v1l-1 1v3l-1 1v4h2l1-1 1-1 1-1v-1l1-2h1l2-4 1-3 1-3v-1h1v-1l1-1v-4h-1v-2l-2-2v-2h5l1-1v-1l1-1 1-1h2l1-1h1l2-1h1l1-1 1-1 2-1h1l3-2 1-1 4-3 3-2 5-4h1l1-1h1l1-1 1-1v-2h-3v-1h-1v-2h1v-3l1-1v-2h1l1-2v-1l2-5 2-4 1-2 1-4 1-3 2-4v-2l2-4 1-3 1-2 2-3v-1l2-3 1-1 1-2 1-1v-2l-1-1v-1l-1-3v-2h1l-1-2v-1l-1-1-1-1h-1v1l-2 2-1 1-1 1v4l1 1v1l1 1v1h-1v1l-1 1-1 2v1l-1 1-1 3-1 2-1 2-1 2v1l-2 5-1 2-1 2-1 1-1 2v1l-1 2v1l-1 1-1 1-1 1v1l-1 2v1l-1 2v1l-3 8-1 3v1l-1 2-1 1-1 2-1 1v2l-1 1-1 1-1 1-2 1h-1v1l-2 1-1 1-3 2-1 1h-1v-1l1-1v-1l1-1v-1l1-2v-1l1-3 1-1 1-3 1-1 2-6 2-3 3-6 1-3 2-3v-2l2-2v-1l1-3 1-1 1-2 1-2h1v-1l2-2 1-2v-1l1-1v-1h1l1-3h1l1-3 1-1v-3h-1v-1h-3v1h-1l-1 1-3 3-1-2v-1l-1-2v-7l1-4v-3l-1-4v-1l-2-5v-6l1-1v-3l1-2 1-2v-1l1-1v-1h4l1 1 1 1v1l2 2v1l1 3 1 1 1 1h2l1 1h7l2-1 1-1h1v-4l1-2v-1l1-2v-1h1v-1h7v4l-1 4-1 2-1 1-1 2v2l1 1v2l1 1v10l-1 2v1l-1 1v1l-1 2v4l-1 2v8l-1 5-1 2-1 4-1 2-2 4-1 2-1 2-1 2-1 1-1 2v1l-1 2v1l-3 5-1 2v1l-1 1-1 3-1 1v3l1 1v1h2l1-1h1l2-1 1-1v-1l1-1 1-1 1-2 1-2 3-6 2-3v-2l2-3 1-1 1-3 1-1 1-2 1-1 1-2v-1l1-1 1-1 1-1v-1l2-2 1-1v-3h1v-2h1l1-2 1-1v-1l2-4 1-2 1-2v-2l1-1v-1l1-1 1-2v-4h-2v1l-3 1-1 1-1 1-2 2h-1l-1 2-1 1-1 2-1 1h-1l-1-1v-2l1-1v-1l1-1v-1l2-3 1-2v-4l1-2v-9l-1-5v-3l1-2v-3l1-1h1v-1h2l4 1v-6l1-2v-3l-1-1v-1h-2l-2 1-1-1h-1v-1l-1-1v-11l1-1v-3l1-1 1 1 1 2 1 1 2 3v7h1v1l1 1 2 2 1 1v1l1 2 2 2 2 2v1l1 1v1l-1 1v5l-1 1-1 4-1 2-1 5-1 2v1l-1 1v1h-1l-1 3v3l1 1 2-1h1v-1l2-1 2-1 1-1h1l1-1h1l1-2h1l1-2 1-1 2-3 1-2v-1l1-2v-5l1-4v-4l1-2v-4l1-3v-4l1-1v-2h1v-2h1l1-1 1-1h1l1-1 1-1v-10l1-3h1v-1h1v1l1 1v3l1 1v1l1 3v5h1v2l1 1v-1l1-1v-3l1-1h13v2l-1 1v2l-1 2-1 2v1l-1 4v11l2 1h3l1-1h1l1-2v-7l-1-2v-5l-1-3v-6l1-1 1-2v-1l2-2v-1h1l1-1h7l1-1h1v-1l3-2 2-1 1-1 1-1h1l1-1 2-2 1-2 2-4 1-1h1v-1h1v-1h1v-2l1-1v-1l1-5 1-2v-1l1-2v-1l1-1h2l1 1 1 1 1 1v1l3 4 1 1v1h1l1 1h1l2-1h4l1-1h2v-1l1-2v-3l1-1v-3l1-1v-17l-1-3v-2l1-1 1-1 2-1h4l1-1 2-1h1l2-2h1l2-2 1-1v-8l1-4 1-2v-3l1-1v-2l1-1h3v1h1v2l1 2 1 1h1v-1h1v-1l1-2v-3l1-3v-15l-1-1v-1l-1-2v-6l1-3v-1h1v-2h1v-1l1-1v-4h1v-1h1v-1h2v-5l-1-4-1-1v-1l-1-1-1-3-1-2v-7l-1-1v-1l1-2h1l1-1v-1h1v2l1 1 1 1h2v-4h-1v-1h-3l-1-1v-1l-2-1v-2l-1-1v-1l-1-1-1-1v-3l1-1h3l1 1h1l1 1h1l2 1h1l4 2 1 1 2 1 1 1h1v1h1v-4l-1-3v-1l-1-5-1-1v-5l-1-3v-1l-1-3h-1v-2h-1l-1 1v1l-1 1-1 1-1-1v-1l-1-1-1-1h-1l-1-1h-1l-1-1-1-1-1-1h-1v1l-1 1v1l-1 1h-1l-1-1 1-1v-1l1-2v-2h-1l-1-1v-2h1l1-1h7l3 1h3l1-1h7l3-1h5v1l1 1h2l2 1h3v1h2v1l1 1h1l1 1h1l2 1h1l1 1h1v-2h-2v-2h1l1 1h1v1l1 1 1 2h-8l-1 1-1 1v1l-1 1-1 2v4h1l1 3v4l1 1h1l2-1h2v-1l1-1v-1l-1-1v-1h1l1-1v1h2v-1l1-1h-1v-2l-2-1v-2h2v1h1v-3h1v-1h1v-1l1-1 1-1v-1h1v-1h4l1 1v1l1-1h1v-1l1-1v-1h-1v-1l-1-1-1-1h-1v3h-1v-1h-5l-1-1v-1h-1 1v-1l1 1h2l1-1v-2h-1l-1-2-2-2v-1l-1-1v-5h1l1 1 1 1 1 2 1 1v2l1 1h4l1 1h1v-1h1v-2h-3v-4l1-2h1l1-1 1-1h-1l-2-1-1 1-1 2h-3l-1-1v-1h2l1-1v-2h1v-1l1-1h1v-1h-2v-1h-1l-1 1-1 1v1h-2v-1h-1l-1-1-2-2-1-1 1-1v-2l1-1h-1v-1h-4l-1-1v-1l1-1v-4h-2l-1-1v-1l-1-1-1-1-1-1h-1v1h-1v1h-2v-1h1l1-1h-2l-1-1-1-1v-1l-1-1h-3v-4l1-3v-1h-1v-1h-2l-1-1h-1l-1-1v-1l-1-1v-1l-2-4v-1h-1v-1l-1-1-1-1v-16l1-2v-1l1-1 1-2 2-4 1-1v-3l2-2 1-1v-1l2-1h1l2-1 2-1 1-1h1l1-2 1-1 1-2 1-1v-1h1M450 899v1-2m-39 1v1-2m14-16h1v1l1 1v3l-1 1v4l-1 2v3l-1 1-1 1-1 1h-1l1-1v-3l1-4 1-2v-2l1-3v-1h-1l-1-1h-1l-1 1h-1l-1 1-1 1v1l-2 2h-2v3l-1 1v1-4l1-1 1-1 1-2 1-1 3-1v-1h1l2-1h2m26 4-1 1v10-10l1-1m-39 10-1 1v-1h1m-119-46v1h-1v1l-1 1v1l-1 1-1 3-1 1v3h-1v2l-1 2-1 1-1 3-3 6-1 2-1 3-1 2-2 3v1l-1 1v1l-1 1v1h1l1-1 2-1v-1h2v-1h2l1-1h1l1-1 1-1v-1l1-2v-3l1-1v-1l1-1v-1l2-1v-1h1v-1l1-1v-2l1-3 1-1v-1l1-1v-2l1-2-1-1v-2l-1-1v-4h-1v-1m69 33-1 1h1-1l1-1m2 0v1h-2l2-1h1m-74-8h-2l-1 1v5h-1v1h1v1h1l2-1h1v-1l1-1v-4l-1-1h-1m82 4h1v1h-1l-1 1h-6v1h-1l1-1-1-1h2l2-1h3m52-17 2 1 3 2v1l1 1h1v2h-1v1l-1 1h-2v2h-1v2l-1 2v2l-1 1v-1l-1-1h-1l-1-1h-1 1l1-1 1-1v-1l1-1 1-3h1v-1h2v-3h-1l-1-1-1-1h-2l-1 1v1l-2 3-1 2-1 2h-1v1l-1-2 2-3 1-1 1-2 1-1v-1l1-1v-1h1m-111 13v2-2m0-39h-2l-1 2-2 2-1 2-1 1-2 4-1 2-1 3-1 2-1 3v4h1v1h1l1-1 1-1 1-1 2-3-1 1v1l-1 3-1 1-1 2-1 3-1 1-1 2v1l-1 1v1l-1 1v1h2l1-1 1-1 2-1 1-1h1l1-1 2-1h1l1-2 1-1v-3l1-3v-3l1-1h2l1-1 2-2v-2l1-1-1-1v-1h-2v-1l-1-1 1-1v-3l-1-1h-1l-1 1-1 2v-1l1-1 1-1v-2l1-1h-1v-2h-1l-1-1m-91-32h1v1h-1l-1 1v1l-1 1-1 1v2h-2v2h-1v1l-1 1v1l-1 2-1 3h-1v3l-1 1-1 1v1h-1v2l-1 1-1 3v2l-2 3v1l-1 2-1 1v1l-1 2-1 1v4l-1 3v4h2v1h2l1-1h1v-1l1-1 1-1 1-1 1-2 1-2 1-1 1-2v-1l1-1 1-1 1-1 1-1 1-1h1v2h-1v1l-1 2-1 1v2h-1v2h2v-1l1-1 1-1v1l1 1h1l1 1v3h3l3-1h5l1-1h1v-1l1-1v-3l1-2v-3l1-1 1-1 1 1h1l1 1v1h1v1h3l1 1 1 2v1h1v1h-2l-1-1h-3v1h-1l-2 1-1 1-1-1h-2l1 1 1 1v1h-1l-1 1h-1l-1 1h-10v1h-1l-1 1v2l1 1h3-7l-2 1h-3v4l-1 1-1 3v1l-1 3-1 1v1h-1v1h-1v1h-1v-8h-1v1h-1l-1 2v2l-1 1v2l-1-1-2-2h-1l-1-2v-2h-2v-1l1-1-1-1-1-1v-3l1-1 1-1v-3l1-2v-2h1v-4l1-1v-2l2-4v-2l1-2 1-1v-2l1-1 1-2v-1l1-3 1-2 2-3v-1l2-3v-2l2-2 1-2 1-2 1-2 1-2 2-2 1-1h1m250 21h2v1l-1 1v1l1 2h1l2 1 2 1 2 1 1 1 1 1 1 1v3l1 1v1l1 1 2 1h1v-3l-1-2v-1l-1-3-2-3-1-1v-1l-1-2 1 3 1 1 2 2 1 1 1 1 1 1v5h1v1h1v1h1v6l1 1v1l1 1 1 1h-1v1h3v-1l-1-1-1-1-1-1-1-1h1l1 1h1l1 1 2 1v1h1l-1-1-1-1-1-1-3-3-1-1v-4h-1v-2 1l1 1v2l1 2v1l2 2 1 1 2 1 5 3 2 1h1l1 1h1-1v1h1v1l-1-1h-1v1l1 2h2v1l1-1v-1l3 3h-5l-1 1v1h1l1 1h4l1-1h3l2-1h1l1 1 1 2h3v2h-2v-1h-4l-4 1h-1l-2 1h-2l-1-1h-2v-1h-1l-1-1-1 1v3h1l1 1 3 1h3v2h-1l-1 1h-6v-1h-1v-1h1l-1-1h-6l-3-1h-5 1v-4h6l1-1v-1l-1-1h-1l-1-2-1-1-3-1-1-1-4-4-3-1-2-1-1-1-1-1h-1l-4-1-2-1h-1l-2-1h-1l-1 1h-1l-1 1v3h-1v-1l1-2v-2l1-1h3l2 1 1 1h2l3 1h4l-2-3v-2l-1-1h3v-2h-1l-1 1v-2l1-1v-2h-1l-1-1-1-1v-1l-1-1-1-1-2-2-1-1-1-1h-1l-1-1h-3v1l-1 1h1v1h1l1 1h-2v1h-2l-2 1v1l-1 1-1 1v-2l-1-1v-3l1-2 1-2v-1h1v-1h7m-155 48-1 1v1-1l1-1 1-1m148-7h2l1 1h1l1 1h2l1 1h2l2 1v1h1v2h-1l-1 1-1 1h-1l-2 1h-1l-2-1h-1l-2-1-1-1h-1l-2-1h-1 6l1-1v-1l-1-1-1-1h-3l-2 1h-1v1-1l-1-1 1-1v-1h4m8 5-1 1h-1v1h4v-1l-1-1h-1m-11 1v-1m-128-12v1l-1 1-2 2-1 1-1 1h-1v1l-1 1-1 1h-1l-1 1-1 1h-1v-2l-2-1v-1h1l1-1h6l1-1h1l1-1 1-1 1-2h1v-1m161 9h-1v2h2v-2h-1m-11 0v1-1h2-1m50-3-1 1v1h-1l1-1 1-2m-46 1-1 1 1-1 1-2m-151-1v1l-1 1h-1 1l1-1v-1m-122-7v1l-2 1h-3l-1 1-3 1-1 1h-1v1l-1 1h-1v1h-1 1l1 1h1v-1h4l1-1 4-1h1l1-1h1l1-1v-3l-1-1m244 4h1v1l-1 1v1h-1v1h-3v-1h-1v-2h1l1-1h1l1-1h1m60 5h1m-8-3 1 1 2 1h1l2 1-2-1h-1l-1-1-1-1-1-1m20 4v-1m-12 1 3-2-3 2m12-1h1m-57-10 2 1 1 1 3 1h1l1 2h1l4 4-4-3-1-1-3-2-1-1-3-1-2-1h-1m-23 7v1h-1l-1 1h-2l2-1h1l2-1m-100-21h-1l-3 1-1 1-2 2-1 2-1 1v1l-2 1h-2v8l-1 1v2l-1 2 1-1v-4l-1-2v-7l1-1v-1h1v-1l1-1h3l1-1h1l2-1 1-1 3-1 1-1h2m87 23v-1 1m-28-5 1 1 1 1v1h-2l-1-1-1-1h-1v-1h2m40-9h5l3 1 2 1 2 2-2 2-1 1h-1v1h-3l-1 1-1 1-2 1v1l2-3v-1h1-1l1-1v-1h1l1-1h2l1-1h1v-1l-1-1-1-1h-1l-2-1h-5v-1m-140 5v5l-1 1h-1v-4l1-1v-1h1m-2-1-1 1-1 2-1 3 1-2v-2l2-2v-1l1-1m155 7h-1v1-1h1m-248-3h-1v3h2l1-1h-1v-2h-1m56-7h-1v2l1 1 1 1h1v1l1 2v2h2l1-1 1-1-1-1v-1l-1-1h-1v-1l-1-1h1l-1-1h-1l-1-1h-1m194 7-1 1-1 1 1-1v-1h1m-173-6h-1v4h1v1l1 1h1v-2l1-1v-2h-1v-1h-1m69-8h15l4 3 1 2h2v1l-4-3v-1l-2-1-1-1h-11l-1 1h-1l-1 1v2h1l1 1v2l-1 1-1 2-2 2v-11l-1-1h-1m-112 11h-1 1m222-7 1 1 1 1h1-1l-1-1h-1v-1m7 0v1h-1 1v-1m-6-2 1 1 1 1-1-1-1-2m3-1h1v1l1 1v1l1 1-1-1v-1l-1-1h-1l-1-1-1-1m10-7 3 4 1 1 2 2v1l1 1v2-1l-2-3-1-1-1-2-1-1-2-4-1-2m-36 4v1l1 1v2l-1 2v3h-4l-1-1-1-1v-5h1v-1h1l1-1h2m18 8 2 1-2-1h-2 1m-139-10h-1l-1 1-3 1-1 1-1 1-1 1-1 1v2l1 1v1l1-1 1-1 1-1 1-1 1-1h1l1-1 1-1h1v-3h-1m89 8h-2 3m-18-20 1 1h1v2h-1v1h2l2-1v-1l1-1h2v4l1 1v2h1l1 1h2l1-1h2v-1h2l1-1 5-1h5l1 1v1l-1 1-1 1-1 1-1 1h-3l-1 1-1 1-1 2v1l-1 1v1l-1 1 1-1v-2l-1-1v-3h-1v-1h-5l-1 1v1l1 2v2l1 2 1 1-1-1-1-2v-2h-2l-1-1h-1l-2 1h-1l-1 1h-1l-2 1-1 1h-2l-1 1v-1l-1-1v-1l-1-1h-1v-1h1l1-1h1l1-1 1-1v-1l-1-1-1-1h-1 1l1-1 1-1v-1l1-1v-1h1v-1l-1-1-1 1h-1l-1 1-2 1-1 1v1-2l1-1 1-2h1l2-1m-143 8v3l-1 3v1l-1 3h-1v1l-1 1h-1l-1-1v-3l1-1v-2l1-1 1-2v-1l1-1h1m151 3h-1v1h-1v2h2l1-1h1l1-1h-1l-1-1m82-82-1 1h1v1h-1v2h-1l-1 2-1 1-1 3-1 1-2 3-1 1v1l-1 1v1l-1 1-1 2v7l1 1v1h1v1l1 1v6l1 3v1l1 3v3h-1v1l-2 2 3-1h-1v3h1v4-3l-1-1v-1h-1v12l1 3v3h1l1 3v3l1 4 1 2 1 1-1-1-1-1h-1l-1-1h-1l-1-2-1-1-1-1v-4l-1-1v-1l-1-1-1-1-2-1-2-1h-2l-2-1v-1l-1-1h-2l-1 1-1 1-1 1-2 1h-1l1-1v-1l1-1h2v-2l-1-1v-1l-1-2h-1l-1-2h-2v-1h-1v1l-1 1v5-3l-1-1v-2l1-1v-1h1l2-1h1v-1h1v-1l1-1v-3l1-2v-2l1-1v-1l1-2v-5l1-3v-1l1-1 1-3 1-1 1-3v-1l1-1v-2h1l1-1v1h2l1 1h1l1-1 1-1 1-1 1-1 2-3 1-1 1-2 1-1v-1h-1v-1h1v-1h1v-1l3-3 1-1m-123 61v1l-1 1-1 1v1l-1 2v3l1 2 2-2 2-2 1-1 2-1v-1h1v-2l-1-1h-1v-1h-2m-96 3-1 1-1 1v3h1l1-1 1-1v-1l1-1-1-1m88-10-1 1-1 2-1 1v1l-1 1v4h1v1h2l1-1 1-1 1-1v-6l-1-1v-1h-1m40-58h-1v1l-2 1v1l-1 2v1l-1 2-1 2-1 1-2 5-1 3-4 7-1 3v1l-1 2-1 3v2l-1 2v1l-1 1v1l-2 4-2 3v2l-1 3v3l1 1v1h1v-1l1-1v-1l1-1v-1l2-3 1-2 2-4 1-2 2-4 1-2 2-4v-2l2-4 1-1v-2h1v-2l2-3v-2l1-1 1-2v-2l1-1v-1l1-3 1-1 1-3v-2l-1-1m-103 42-1 1v6h-1v5h1v-2l1-2v-2l1-1v-5h-1m99 5h-1v1l-1 1-1 1v2h1v1h3l1-1h1v-2l-1-1v-1h-1l-1-1m87 1v1l1 1v1l-1 1h-1 1l1-1v-1l-1-1v-1m-67-37h-1v1l-1 2v1l-1 1-1 3-1 2-1 4v1l-1 1-1 2-1 2v4l-2 4-1 1-1 2v1l-1 2v5h3v-2h2l1-1 1-1v-1l1-1v-4h-2v-3l1-2 1-2v-1l1-2 2-4v-1l1-3 1-1v-3l1-1v-2l1-2v-2l-1-1m64 35h1v1l1 1-1-1-1-1v-2m-1-2 1 1h-1v-1m0-1v-1m-191-47h1l1 1v1l1 2 1 1v1l-1 1v1l-1 3v2l1 1v2h-1v2l-1 1v4l-1 3v5l-1 7v4l-1 2v3l-1 1 1-3v-2l1-3v-19h-1v-6l-1-1-1-2v-5l1-2v-1l1-2v-1l1-1 1-1m94 24h-1v6h-1v10l-1 1v4h1v-1l1-1v-1l1-1v-2l1-1v-14h-1v-1m93 15v1l1 1 1 2v1l1 1h-1v-1l-1-1-1-1v-4m-55-1-1 1-1 1v5h1v-1h1l1-2v-2h1v-2h-1m-21-17v1l-1 1v1l-1 3-1 1-2 4v1l-1 1-1 2v3l2-3 1-1 1-1v-1h1v-3l1-2h1v-2l1-3v-2m46 5v5l-1 1v2l-1 2h-2v1h-2v-2l1-2v-1l1-1 1-3h1v-2h1m-204 8h1-1v-1m1 1 1-1m179-4-2 1-1 1 1 1h1l1 1h2l1-1v-2l-1-1h-1m-175-4v1l-1 1-2 2 2-2 1-1v-1h1m231 2-1 2 1-2 1-1m-207 2h1v1l-1-1m-22-10 1 1v2l-1 1v1-1l-1-1h-1v-1h-1l1-1 1-1h-1l-1 1v1h-1l-1 2v1l-1 1-1 1v1-1l1-2 1-2h1v-1l1-1 1-1h1v-1m-2 8v-1m255-20v1l-2 1-1 1h-1l-1 1h-2v1l-2 1h-1l-1 1-1 1-1 2-2 1-3 4-4 5 3-4 3-4 2-2 2-2 2-2h1l1-1 1-1h2l1-1h1v-1l3-1v-1h1m-85 15h-1l-1 1v3h1v-1h1v-2h1v-1h-1m-8-6h-1l-1 1v1l-1 1v4l1 1h1l1-1v-1l1-2v-3l-1-1m6-1h-1v6h1v-2l1-1v-3h-1m-45-22v12l-1 2v6l-1 8 2-5 1-1v-2l1-2v-4l1-3v-4l-1-2v-2l-1-2v-1h-1m61 15h-1v1l-1 1-1 2h-1v3l-1 2v3h1v-1h1v-1l1-2 1-1 1-2v-1l1-2v-2h-1m19 4v2l-1 2v1l-1 1-1 1h-2v-2l1-1v-2h1l1-1 1-1v-1m-129 1h-1l-1 1h-1l-1 1v4h1v1h1l1-1h1l1-2 1-1v-1h1v-2h-1m164 3 1-1 2-2-2 2-1 1m-200-4-1 1v2l1 1 1-1v-2l-1-1m-46 0-1 1 1-1m0-1 1-1m1-2v-1m7-9-1 2-2 2-1 1-2 3 1-2 3-3 1-1 1-1 1-1m33-31h-1l-1 4v5l-1 3-1 1-1 3v1l-1 1v1l-1 1-2 2v2l-1 2v1l1 1v1h1v2l-1 1v3-3h-2v1h-1v-6l1-1v-1l1-3 1-1 1-3 3-3v-1l1-1v-4l1-2v-2l2-4 1-2m118 25-1 1v5l-1 1h1v2h2v-1h1v-3h1v-3l-1-1-1-1m-129-17h1v3l-1 1h-2v2l-1 1-1 1-2 2-1 1-1 1 1-1v-1l2-1v-2l1-1v-1h1l1-1h-1l-1 1h-1v1h-1l-1 1-2 2-1 1-2 2-2 2-3 4v-1l3-3 1-2 2-2 1-2 2-2 1-1 1-1 1-1 1-1v-1h1l1-1h1m170 9 1 1v3l-1 1v1l-1-1-1-1v-4h2m17 1v2h-2v-2h1m-167-44v2l-1 3v1l-1 1v2h1v3h-1v1h-1v1h-1l-1 3v1l-1 2v2l-1 1v1l-1 1v1l1-3 1-1v-3l1-1 1-4v-5h1v-3l1-2 1-1 1-3 1-1v-1m122-2h1l1 1 1 1v3l-1 1v3h-1v1h-1v-1l1-1v-1l-1-2v-5m64-42v38l-1 2v2h-2v-1h-1v-4l-1-1v-7l-1-3v-5l-1-3v-3l-1-1v-2l-1-1v-6l1-1v-1h1v-1h2v-1h3l1-1h1m-172 23-2 2-3 4-1 2-1 2v-1l2-2 2-4 1-1 1-2 1-1 2-2 7-7-6 6m191 5-1 1h-1v4h2v-1l1-1v-2l-1-1m-109-57v1h1v1l-1 1v1l-1 1h-1v-3l1-1v-1m-21-8v1h-1l-1 1-1 1-2 2-3 2-1 1v1h-2v1-1l1-1v-1l2-2 1-1 2-2 1-1 1-1h2m13-4h1l1 1 1 1 1 1h2v2h-1v1h-1l-1-1-1-1h-1v1h-1l-1 2v4l-1 1h-4l-1 1h-2v-6l1-1 1-2 1-1 2-2h1l2-1h1m5 8v1l1 1v1h-1l-1 1h-4l1-1v-1l1-1h1l1-1m-5-7h-1v1h-1v3h-1l-1 1v1h1v1h1l1-1h1v-2l1-1v-3h-1m193-43v7l1 5 1 1v2l2 3v1l1 2v1l1 1v2h-1v-1l-1-1v-1h-4l-1-1h-2l-1-1-2-1-3-1-1-1-3-1-1-1h-5l-1-1-1-1h-1l-1-1v-3h1l1-1 1-1 2-1h1l2-1h8l1-1h2l1-1v-1l1-2h1m-135 21v1h1v2l-1 1v-1h-1v-3m-22 1v2h-2v-2h2m158-15v5l-3-2-4-1h-9v1l1 1 1 2h1l1 2h4l2 1 2 1 1 1h7v-2h-1v-2l-1-2-1-2v-3h-1m-44-2h-2l-1 1v1h1v1h2v-1l1-1v-1h-1m-52-38h1l1 1h2v1h2l1 1 4 1 1 1h2l2 1h2v1l1 1 1 1v3l-1 1v1l-1 1-1 1h-1l-1 1h-1l-1 1v1l-3 1-2 1-1 1h-1l-1 1h-3l-1 1v1h-1l-1 1-2 1-1 1h-2l-1 1h-8l-1-1 1-1v-1h1l2-1v-1h1v-1l1-1v-1l3-3 1-1 2-2 1-1 1-1 1-1h4l2-1h3v-2h-1v-1h-1l-1-1h-1v-1l-2-1-2-1-1-1v-2l1-1m20 23h1v2h-2v-1h-1v-1h1l1-1m18-2v1h1v2l-1 1v-1l-1-1v-2m49-20v2l-1 1h-2l-1-1 1-1 1-1m19-8v2l1 2v2l1-1v-4h-1v-1m-18 1v3h-1v1h-1l-1-1v-3h1v-1h1m-57-13 2 1v2l-1 1h-3l-1 1v1h-1v1h-2v-3l1-1 1-2 2-1h2m61 1v2h-1l-1 1v-2l1-1m0-6h1v5h-1v-1l-1-1-1-1-1-1h-2v-1h2l1-1h1m18-1v1h-1 1l1 1 1 1 1 1v2h2v-1h1v-2h-1v-1l-1-1h-1l-1-1h-1m10-5v1l1 2v2l-1-2v-4m-1-2v1h-1v-1h1m-1-5-1-1v-2h-1l-1-2-1-1v-2 1l1 2 1 2 1 1v1l1 1v1l-1 1 1-1m-39-1v2h-2v-2h1m23-3v2h1v1h1v-1h1l-1-1-1-1m-1-6h-1v1h-1v3l1 1h1v-1l1-1v-1l-1-1v-1m2 2h-1v2h2v-2h-1m9-8 1 3v3-1l-1-1v-5m28-13h2v2h-6l-3 1h-6l-2 1h-3l-2 1-2 1-4 2 3-2 3-1h1l2-1 1-1h5l1-1v-1h-2l2-1h9m-22 3-3 2 1-1 2-1h1m47-2h2v1l-1 1h-8l-1-1h-1 1v-1h3v-1h3m-26-34v3l1 1 1 1 1-1h1v-1h1v-1h1v3l-1 1h-1v1h1l1-1 2-1v-1h1l1-1h1l2 1h2l2 2 1 1 2 1 1 1v3l1 3-1 1 1 2v1l1 3v1l2 2 1 1 1 1h1v3h-4l-1-1h-1l-2-1h-7l-5-2h-1l-3-1h-4l-1 1h-1l-1-1h-1l-1-1-1-1-1-1-3-2h-1l-2-1v-1h-1l-1-1v-1h2l2 1h5l1-1h1v-1l1-1h-2v-1h-5l-1-1h-3v-1h-1v-1l1-1v-1l1-1h1l1-1 2-1h1v-1l3-1 1-1 1-1h1l1-1m35 16h1v3l1 2v4h-1v-1h-1v-4l-1-2v-1l1-1m-25 2-2 1h-3v1h1v1l2 1h1l2 1h2l1 1h5v-1l-1-2h-3l-1-1-2-1-1-1m-10-10h-2l-3 1h-1v1h-1l-1 1v2h1v-1h2l1 1h1l1 1v1h1-1l-1 1h-1l1 1h1l1 1h1l1 1h2v-1l-1-1v-2h6l2-1 2-1 1-1v-1l-1-1-2-1h-3l-2 1v1h-1l-1 1v-1h-1v-2l-1-1h-1m-39-15v2h1l1 1h1-1v3h1v1h-2l-1-1h-1v-1l-1-2v-1l1-1v-1l1-1m4 1v1h1v1h-1v1-3m-41-11-2 1-2 1-1 1-2 2v-1l3-1 1-1 2-2 6-3m9-5-1 1-5 2-2 1 2-1h1l2-1 1-1h1l2-1h1m15-1h1l3 1h3v1l-1-1h-1l-5-1m-35 494v1m-33-129-1 1h-1 1m-247-7 1-1 4-4 1-2-2 2-3 4-1 1-1 2-2 2 2-2Z"/><path fill="rgba(253,225,250,1)" d="M232 965v-1l1-1v-3l1-1h1v-3l1-3v-1l-1-3v-3l-1-1v-2l1-1v-1l1-1v-1l1-1 1-1 1-1 1-1h1l1-1h7l1-1 1-1v-1h1l2-1v1h2l3-1h2v1l1 1v1l-1 1v2h-1l-1 1h-2l-2 1h-1l-2 1h-1l-2 1h-3v1h-4l-1 1h-1v-1h-1v3l1 1 1 1v1l1 1v2l1 1 1 2h1v1h1v3h-3l-1-1-1-1v1l-1 1v3l-1 1-2 1-1 1-2 1-1 1h-1l-1 1v-1m264-36v-5h1v-1 4l1 2v1l-1 1-1-1m-24-12-1-1v-1h-1v-4l1-3 1-3 1-1v-1l1-1v-3l1-3v-6l1-1 1-1h1l1 1h1v2l1 1v9l-1 5v1l-1 2-1 3-1 2-1 1v1h-1v1h-2m-19-7h-1v-1h1l-1-1-1-3v-3l-1-1v-15l1-1v-1l1-1 1-1 1-1 1 1h1l3 3 1 1 1 1 1 1v4h-1v1l1 1v1h2v1h1v-1h1l-1-1 1-1h2v3h-1l-1 1-1 1v1l-1 1h-4l-4-1v3l1 1v6l-2 1h-1l-1 1m-36-6-1-1v-1l-1-3h-1v-1 4h-3l-1-1v-2l1-2v-2l1-1v-2l1-1 1-1v-3h2l2-2v-1l1-1 1-1h1l1-1h1l1 1h1v1l-1 3v2l-1 2-1 4v3l-1 1h-2v-1h-1l-1 1v4l1 1 1 1v1h-2m-150-11v-1l1-1 1-1h3l1-1h2l4-2 1-1h1v-1h2v-1h2l-1 2v4h-1v1h-3l-1 1h-2l-3 1-1 1h-5m176-14-1-1-1-1 1-1 1-2v-1l1-1 1-1v1h1l1 1 1 1 1 2-1 2-1 1v1h-1l-1 1-1-1m-81-3v-1h1l1-1 1 1-1 1v1h-1l-2 1h-1l1-1m-74-4v-3l1-1h3l1 1v4l-1 1v1h-1l-2 1h-1v-1h-1v-1h1m10-4v-1h1v-1h1l4-2 1-1 1-1h1l2-2v-1l2-1 2-3 1-1 1-2 1-1 1-1v-1l1-1v-3l1-1v-1l1-2 2-3v-1l1-3 1-1 1-2v-7l1-2v-1l1-1v-1l1-1h2l1 1v1l1 1v5l-1 1v1l-1 2-1 3-1 1-1 2-1 2v2h-1v4h2l1-1v-1l1-2v-1l1-2 1-1 1-2 1-1 1-2 1-1 2-2 1-1 2-2h1l2-2h1l2-1 4-1h7l3-1h7l1-1h4v-1h1l1-1h2v-1h2l1 1h1l1 1h3v1h1v4l1 3h1v5h-2l-1-2-4-3h-28l-1 1-3 1-1 1-2 1h-1l-1 1h-3l-1 1v1h-1v1l-1 1v7l1 2v4l-1 1v1l-1 1v1l-1 1h-1v-1l-1-1v-1l-1-2h-1v1h-1l-1 2-1 1-1 1h-1l-1 1h-6l-1 1h-1v1l2 1v2l-1 1-1 1-1 1-2 1-1 1-1 1v3l-1 1h-2v-1l-1-1h-3l-2 1-4 1h-2v-1m121-1v-1h-1v-2h1l1-2 1-2 2-3v-1l1-1h2l1 1 1 1h1v3h-2v1h-1l-1 3-1 1v1l-1 1-1 1h-2m-143-4v-2l1-1v-3l1-1v-1l1-2v-2l1-2 1-5 3-7h-3l-1-1-1-2v-1l1-1 1-1h1l1-1 2-1 1-1 1-1 1-1 1-2 1-4 1-1v-2l1-1v-2l3-7 1-2 1-2v-1l1-2v-1l1-2v-6h1v-1l1-1h1v-1h-1l-1-1h-1l-1-1-1-1v-5l1-2v-2l1-1 1-2 2-4h1l2-2v-2h1v-2l1-2v-1l1-3v-1l1-4v-3l1-3v-2l1-4v-2l1-1v-4h-7l-1 1-1 2h-1l-1 2-1 2v1l-1 2v7l-1 4v6l-1 2v5h-1v1h-1v1l-1 3v3h-1v-21l-1-2v-7l-1-1v-6l-1-2v-1l-1-1v-2l1-3v-1l1-1v-1l-1-1-1-2v-1l-1-1h-1v-1l-1 1-1 1v1l-1 2v1l-1 2v5l1 2 1 1v6h1v19l-1 3v2l-1 3v3l-1 1v1h-1v13l-1 3v5l-1 1h-1v1l-1 1-2 2v1l-2 2-2 4v2l-2 4v1l-2 4h-1l-1 1v1l-1 1h-1v-2l1-3h1v-2l1-2 1-4v-2l1-3h1v-1l1-2v-2h1l-1-1v-2h-4v-1l-1-1v-4l2-4 1-2 2-4 1-2 1-4v-1l1-3v-4l1-1v-18h-2v8l-1 4v9l-1 2v3l-1 1v1l-1 1-1 1-1 1h-1l-1 1h-2l-1-1h-1l-2-2v-1l-1-1h-1v-3h1l1-1h3v-2l1-2v-4l1-4 1-3 1-7 1-1 1-3v-2l1-2v-1l1-1v-2h1v-3l1-1 1-3 1-2v-2h1v-5l2-3v-3l1-1v-2h-1v-1l-1-1v-1l1-2v-2l2-2 1-1v-1l1-1v-1l1-3 1-1 1-3v-5l1-4h1v-2l1-1v-1l1-1v-2l1-2v-1l1-3h1v-1h1v-1h1v-3h-1v-2l1-1v-1l1-3v-2l2-3 1-2 2-4 1-2 3-4 1-2 3-4 2-2 3-4 6-6 1-1 2-2v-1l2-1v-1l1-1h1v-1l1-1v-1h-1l-1 1-2 1v1l-2 1-1 1-2 2-2 2-4 4-1 1-2 2-2 2v1l-1 1h-1v1h-1v1h-1v-1l1-1v-1h1l1-1v-2l3-2 4-5 1-1 2-2 1-1 2-3v-1l2-1 1-1 1-2 1-1 2-3 3-4 1-1 2-3 1-1 3-3 1-1 3-4 2-1 3-4 2-1 3-3 1-2 4-3 1-2 3-2 4-4 2-2 6-4 2-2 6-4 1-1 2-2h2l2-2h1l2-2 2-1h1l1-1 1-1 2-1 6-3 2-1 1-1 2-1 3-2 11-6 2-1 3-2 1-1 3-1 1-1 2-1 1-1 1-1h1l2-2h1l2-2 1-1 2-2 4-4 2-1 2-2 1-1 2-2 2-2 4-3 1-1 3-3 1-1 3-2 1-2 2-1v-1l2-2 3-5 1-1 2-2v-1l2-2v-1l2-1 2-1v-1h2l1-1h2l2-1h9l1-1h2l1-1v-1h5l2 1 5 2h2l3 1 1 1h5v-2h5v-1h-1v-1h2l1 1h3l1-1 1-1v-1l-1-1v-1l-1-1-1-1-1-1-1-2-1-1-3-3-1-1-2-1-1-2h-1l-1-1-1-1-1-1-1-1-3-3-1-2h-1l-1-1v-1l-1-1v-1l-1-1-1-4-1-2-1-2v-1l-1-2-1-1v-2l-1-1v-17l1-3v-1l1-3v-2l1-2 1-2 1-2 1-1 1-3 1-1 2-2 2-2h1l1-1 1-1 5-5h1l2-2 1-1 2-1 2-1 5-3 3-2 5-2 1-1h2l3-1h1l1-1h2l1 1h7l5 1h1l2 1h2l1 1 2 1h1l3 1 2 1 6 3h1l2 1 1 1 2 1h1l1 1h1v1h-1v-1h-3l-1-1-2-1-4-2h-2l-3-2h-1l-4-1-1-1-3-1-4-1-1-1h-3l-1-1h-3v1l-1 1-1 2-1 1-1 2h-1l-1 1-2 1-2 1h-1l-2 1v1l-1 1-2 2v3l-1 1-2 4-1 2-1 1v1l-1 2v16l1 1 1 1v1h1v1l2 4v1l1 1v1l1 1h1l1 1h2v1h1v1l-1 3v4h3l1 1v1l1 1 1 1h2l-1 1h-1v1h2v-1h1v-1h1l1 1 1 1 1 1v1l1 1h2v4l-1 1v1l1 1h4v1h1l-1 1v2l-1 1 1 1 2 2 1 1h1v1h2v-1l1-1 1-1h1v1h2v1h-1l-1 1v1h-1v2l-1 1h-2v1l1 1h3l1-2 1-1 2 1h1l-1 1-1 1h-1l-1 2v4h3v2h-1v1h-1l-1-1h-4l-1-1v-2l-1-1-1-2-1-1-1-1h-1v5l1 1v1l2 2 1 2h1v2l-1 1h-2l-1-1v1h-1 1v1l1 1h5v1h1v-3h1l1 1 1 1v1h1v1l-1 1v1h-1l-1 1v-1l-1-1h-4v1h-1v1l-1 1-1 1v1h-1v1h-1v3h-1v-1h-2v2l2 1v2h1l-1 1v1h-2v-1l-1 1h-1v1l1 1v1l-1 1v1h-2l-2 1h-1l-1-1v-4l-1-3h-1v-4l1-2 1-1v-1l1-1 1-1h8l-1-2-1-1v-1h-1l-1-1h-1v2h2v2h-1l-1-1h-1l-2-1h-1l-1-1h-1l-1-1v-1h-2v-1h-3l-2-1h-2l-1-1v-1h-5l-3 1h-7l-1 1h-3l-3-1h-7l-1 1h-1v2l1 1h1v2l-1 2v1l-1 1 1 1h1l1-1v-1l1-1v-1h1l1 1 1 1 1 1h1l1 1h1l1 1 1 1v1l1 1 1-1 1-1v-1l1-1h1v2h1l1 3v1l1 3v5l1 1 1 5v1l1 3v4h-1v-1h-1l-1-1-2-1-1-1-4-2h-1l-2-1h-1l-1-1h-1l-1-1h-3l-1 1v3l1 1 1 1v1l1 1v2l2 1v1l1 1h3v1h1v4h-2l-1-1-1-1v-2h-1v1l-1 1h-1l-1 2v1l1 1v7l1 2 1 3 1 1v1l1 1 1 4v5h-2v1h-1v1h-1v4l-1 1v1h-1v2h-1v1l-1 3v6l1 2v1l1 1v15l-1 3v3l-1 2v1h-1v1h-1l-1-1-1-2v-2h-1v-1h-3l-1 1v2l-1 1v3l-1 2-1 4v8l-1 1-2 2h-1l-2 2h-1l-2 1-1 1h-4l-2 1-1 1-1 1v2l1 3v17l-1 1v3l-1 1v3l-1 2v1h-2l-1 1h-4l-2 1h-1l-1-1h-1v-1l-1-1-3-4v-1l-1-1-1-1-1-1h-2l-1 1v1l-1 2v1l-1 2-1 5v1l-1 1v2h-1v1h-1v1h-1l-1 1-2 4-1 2-2 2-1 1h-1l-1 1-1 1-2 1-3 2v1h-1l-1 1h-7l-1 1h-1v1l-2 2v1l-1 2-1 1v6l1 3v5l1 2v7l-1 2h-1l-1 1h-3l-2-1v-11l1-4v-1l1-2 1-2v-2l1-1v-2h-13l-1 1v3l-1 1v1l-1-1v-2h-1v-5l-1-3v-1l-1-1v-3l-1-1v-1h-1v1h-1l-1 3v10l-1 1-1 1h-1l-1 1-1 1h-1v2h-1v2l-1 1v4l-1 3v4l-1 2v4l-1 4v5l-1 2v1l-1 2-2 3-1 1-1 2h-1l-1 2h-1l-1 1h-1l-1 1-2 1-2 1v1h-1l-2 1-1-1v-3l1-3h1v-1l1-1v-1l1-2 1-5 1-2 1-4 1-1v-5l1-1v-1l-1-1v-1l-2-2-2-2-1-2v-1l-1-1-2-2-1-1v-1h-1v-7l-2-3-1-1-1-2-1-1-1 1v3l-1 1v11l1 1v1h1l1 1 2-1h2v1l1 1v3l-1 2v6l-4-1h-2v1h-1l-1 1v3l-1 2v3l1 5v9l-1 2v4l-1 2-2 3v1l-1 1v1l-1 1v2l1 1h1l1-1 1-2 1-1 1-2h1l2-2 1-1 1-1 3-1v-1h2v4l-1 2-1 1v1l-1 1v2l-1 2-1 2-2 4v1l-1 1-1 2h-1v2h-1v3l-1 1-2 2v1l-1 1-1 1-1 1v1l-1 2-1 1-1 2-1 1-1 3-1 1-2 3v2l-2 3-3 6-1 2-1 2-1 1-1 1v1l-1 1-2 1h-1l-1 1h-2v-1l-1-1v-3l1-1 1-3 1-1v-1l1-2 3-5v-1l1-2v-1l1-2 1-1 1-2 1-2 1-2 2-4 1-2 1-4 1-2 1-5v-8l1-2v-4l1-2v-1l1-1v-1l1-2v-10l-1-1v-2l-1-1v-2l1-2 1-1 1-2 1-4v-4h-7v1h-1v1l-1 2v1l-1 2v4h-1l-1 1-2 1h-7l-1-1h-2l-1-1-1-1-1-3v-1l-2-2v-1l-1-1-1-1h-4v1l-1 1v1l-1 2-1 2v3l-1 1v6l2 5v1l1 4v3l-1 4v7l1 2v1l1 2 3-3 1-1h1v-1h3v1h1v3l-1 1-1 3h-1l-1 3h-1v1l-1 1v1l-1 2-2 2v1h-1l-1 2-1 2-1 1-1 3v1l-2 2v2l-2 3-1 3-3 6-2 3-2 6-1 1-1 3-1 1-1 3v1l-1 2v1l-1 1v1l-1 1v1h1l1-1 3-2 1-1 2-1v-1h1l2-1 1-1 1-1 1-1v-2l1-1 1-2 1-1 1-2v-1l1-3 3-8v-1l1-2v-1l1-2v-1l1-1 1-1 1-1v-1l1-2v-1l1-2 1-1 1-2 1-2 2-5v-1l1-2 1-2 1-2 1-3 1-1v-1l1-2 1-1v-1h1v-1l-1-1v-1l-1-1v-4l1-1 1-1 2-2v-1h1l1 1 1 1v1l1 2h-1v2l1 3v1l1 1v2l-1 1-1 2-1 1-2 3v1l-2 3-1 2-1 3-2 4v2l-2 4-1 3-1 4-1 2-2 4-2 5v1l-1 2h-1v2l-1 1v3h-1v2h1v1h3v2l-1 1-1 1h-1l-1 1h-1l-5 4-3 2-4 3-1 1-3 2h-1l-2 1-1 1-1 1h-1l-2 1h-1l-1 1h-2l-1 1-1 1v1l-1 1h-5v2l2 2v2h1v4l-1 1v1h-1v1l-1 3-1 3-2 4h-1l-1 2v1l-1 1-1 1-1 1h-2m1-128v-2l-1-1v1l-1 1v4h1l1-1m2-10 1-1v-6h-1v1l-1 1-1 3v4h1l1-1m140-74 1-1v-3l-1-1-1-1h-1v5l1 2v1l-1 1v1h1v-1h1v-1m61-9v-1l1-2v-38h-1l-1 1h-3v1h-2v1h-1v1l-1 1v6l1 1v2l1 1v3l1 3v5l1 3v7l1 1v4h1v1h2m-138-56 1-1 1-1 1-1 1-1 1-1v-1h-1v1h-2l-1 1-1 1-1 1-1 1-2 2h-1v1l-1 1v2h1l1-1 1-1h1l1-1v-1m54-19h-1v-1h-1v1l-1 1v3h1l1-1v-1l1-1m-23-10h-3l-1 1-1 1-2 2-1 1-2 2v1l-1 1v1-1h2v-1l1-1 3-2 2-2 1-1 1-1h1v-1m8 8h2l1-1v-4l1-2h1v-1h1l1 1 1 1h1v-1h1v-2h-2l-1-1-1-1-1-1h-2l-2 1h-1l-2 2-1 1-1 2-1 1v6h2l1-1h1m11-1v-1l-1-1v-1h-1l-1 1h-1l-1 1v1l-1 1h4l1-1m51-31v-1h-1v3h1v1l1-1v-2m-24 1v-1h-2v2h2v-1m58-28 1-1 2-1 1-1h1v-1l1-1h3l1-1h1l1-1 2-1 3-1v-1l1-1h1l1-1h1l1-1 1-1v-1l1-1v-3l-1-1-1-1v-1h-2l-2-1h-2l-1-1-4-1-1-1h-2v-1h-2l-1-1h-1l-1 1v2l1 1 2 1 2 1v1h1l1 1h1v1h1v2h-3l-2 1h-4l-1 1-1 1-1 1-2 2-1 1-3 3v1l-1 1v1h-1v1l-2 1h-1v1l-1 1 1 1h8l1-1m27-4v-1h-1v-1l-1 1h-1v1h1v1h2m17-4v-1h-1v2l1 1v1l1-1v-2m47-20v-1h-2l-1 1-1 1 1 1h2l1-1m0-6v-3l-1-1h-1v1h-1v3l1 1h1v-1m-60-11v-1l1-1h3l1-1v-2l-2-1h-2l-2 1-1 2-1 1v3h2v-1m65-5h-1l-1 1v2l1-1h1v-1m0-5v-2h-1l-1-1h-1l-1 1h-2v1h2l1 1 1 1 1 1v1h1v-1m-14-18v-1h-2v2h2m-86 412v-1h1l1-1h1l1 1v1h-4m-8-1h-1v-1h-1v-2h1l2-1h3l1 1 1 1v1l-1 1h-4m24-1h-1l-1-1h-1l-1-1v-1h3l1-1v-1l1-1 1-2 2-2-4-4h-1l-1-2h-1l-3-1-1-1-2-1-5-1h-4v1l-1 1v1h-1v-3l1-1h1l1-1h1l2 1h1l2 1 4 1h1l1 1 1 1 2 1 3 1 4 4 1 1 3 1 1 1 1 2h1l1 1v1l-1 1h-6v4h-3l-1-1h-1m-223-4v-1l1-1v-2l1-2v-2l1-2v-1h1v-1h1v-1h-1l-1-1h-3l-2-1h-2l-1-1h-2v1l1 1v2l-1-1h-1l-1-1-1 1h-3l-1 1h-7l-1 1h-3l-1 1-1 1-1 1h-3l-2 1h-8l-1-1v-2l1-1h1v-1h10l1-1h1l1-1h1v-1l-1-1-1-1h2l1 1 1-1 2-1h1v-1h3l1 1h2l2-1h4l1 1h1v-1h1l2-1v-1l1-1h1v-1l1 1v1h1v1l1 1h1l1-1 1-1v-1l1-1v-1h1v-1l1-2v-1l2-3 2-3v-1l1-2 2-3v-1l1-3v-1l1-2v-1l2-2 2-3v-1l1-1v-1l2-4v-1l1-2 1-1v-1h1l1 1v4l-1 2-1 3-1 2-1 4v1l-1 2v2l-1 1v2h-1v1l-1 1v1l-1 1v1l-2 4v1l-1 2-1 1v1l-1 1h-1l-1 1-1 1-1 1v2l1 1h1l1 1v3h-2v1l-1 2-1 2-1 2-1 2-1 3v1l-1 2-1 1-1 1-1 1h-1v-1m263 0v-1h-3l-1-2-1-1h-1l-2 1h-3l-1 1h-4l-1-1h-1v-1l1-1h5l-4-3v-1h-1v-1h-1v-1h1v1h1l1 1 2 1 1 1 1 1h1l2 1h2l3-2h3l1-1h13l2 1h1l1 1h1v4h-1l-1 1h-1l-1-1-1-1-1-1-1-1-3-1h-3v2l-1 2-1 1-1 1h-1v1h-2m-325-6h-1 1v-1h1l1-1v-1h1l1-1 3-1 1-1h3l2-1v-1h1l1 1v3l-1 1h-1l-1 1h-1l-4 1-1 1h-4v1h-1l-1-1m99 0h-1v-4l1-3 1-2 1-3 1-2 2-4 1-1 1-2 2-2 1-2h2v-1l1 1h1v2h1l-1 1v2l-1 1-1 1-2 3v1l-2 2v2l-1 2v1l-1 2-2 3-1 1-1 1-1 1h-1m141-5h-1l-2-1-3-2h-1l-1-1-1-1-1-1v-1l1-1v-1h1v-1l2-1 2-1 2-1h2l1-1h6v-1h1l1 1h2v1h5l2 1h1l1 1 1 1v1h-1l-1 1h-2l-1 1h-1v1l-1 1h1-1v1l-2 3-1 1-2 1h-1l-2 1h-5m52-7h1l-1-1-1-1v-1l-1-1v-6h-1v-1h-1v-1h-1v-5l-1-1-1-1-1-1-2-2-1-1-1-3-1-1-1-2-1-4v-3l-1-3h-1v-3l-1-3v-12h1v1l1 1v3l1 2v5l1 3v5l1 3v1l1 2v1l1 2 1 2 2 4 1 1 1 2 1 1 2 3v1l1 3h1v4l1 1 3 3 1 1 1 1 1 1h-1v-1l-2-1-1-1h-1l-1-1h-1l1 1 1 1 1 1 1 1v1h-3m-277-2v-2h2v2h1l-1 1h-2v-1m258-10h-1l-1-1-1-1h-1v-1h-2l-2-1h-1l-2-1h-2v1h-1v-1h-1l1-1 1-1v-1l2-1h2v-1h2l-1-1h-1v-1h-1l1-1v-1h3l1 1h1l1 1 1 1 2 2 1 1 1 1v1l1 1 1 1h1v2l-1 1v2h-2v-1m2-2-1-1v-1l-1-1v-1h-1l-2-1-1 1v1l1 2 1 1h1l1 1h2m-68-6h-1l-1-1-1-2v-2l-1-2v-1l1-1h5v1h1v3l1 1v2l-1 1v1h-2m-12-7v-1h1v-1h2l1 1h1l-1 1h-1l-1 1h-2m-9-7h-1v-2l1-1 2-1 1-1h1l1-1 1 1v1h-1v1l-1 1v1l-1 1-1 1h-2m-32-9v-3l1-2v-1l1-1 1-1v-1h4v1h1l1 1v2h-1v1l-2 1-1 1-2 2-2 2-1-2m92-4v-1l-1-2v-6l1-1v-1h1v1h2l1 2h1l1 2v1l1 1v2h-2l-1 1v1l-1 1h-2m-79-14v-3l1-3v-2l2-3 2-4v-1l1-1v-1l1-2v-2l1-3 1-2v-1l1-3 4-7 1-3 2-5 1-1 1-2 1-2v-1l1-2v-1l2-1v-1h3l1 1v2l-1 3-1 1-1 3v1l-1 1v2l-1 2-1 1v2l-2 3v2h-1v2l-1 1-2 4v2l-2 4-1 2-2 4-1 2-2 4-1 2-2 3v1l-1 1v1l-1 1v1h-1v-1m103-5v-1h1v-3l-1-3v-1l-1-3v-6l-1-1v-1h-1v-1l-1-1v-7l1-2 1-1v-1l1-1v-1l1-1 2-3 1-1 1-3 1-1 1-2h1v-2h1v-1h-1l1-1 1-1v-1h1l1-1h1l1-1 2-2 1-1 2-1 1-1h2l1-1 1-1h1l2-1 1-1 1-2 2-3h1v-1l1-1 2-2v-1l2-3 4-4 1-1 2-3 1-1 2-2 1-1 1-2v-1h1v-1h4v1l-1 1-1 1h-1v1h-1v1l-1 1-1 1-1 1-2 2-1 2-3 2-1 2-2 3-1 1-2 3h-1v1l-1 1v1h-1v2l-1 1h-1l-2 2v1l-3 1v1h-1l-1 1h-2l-1 1-1 1h-1l-2 2-2 2-2 2-3 4-5 7-1 2-1 2-1 1-1 2v1l-1 2v1l-1 1v4l1 1 1 1v1h1v2l1 4v1l1 2v1l1 1 1 1 1 1v1l1 1v1l-1 1h-1l-1 1h-1l-4 2 2-2m-84 0v-1h-1v-2l1-1 1-1v-1h1l1 1h1v1l1 1v2h-1l-1 1h-2m-153-31v-1h1v-2l1-1 1-1v-1l1-2 1-1 1-1v-1l1-2h1v-1l1-1h1l-1 1-1 1h1v1h1l1 1v1l-1 1h-2v1h-1v1l-1 1-2 2v1l-1 2-1 1-1 1h-1m177-12v-2l1-1h2v1h-1v2h-1v1h-1v-1m-9-4v-2l1-1v-1l1-1h1l1 1v3l-1 2v1l-1 1h-1l-1-1m-167-10 1-2v-1l1-2 1-1 1-2 2-3 1-1 2-2 1-2 2-2 3-3 5-5 2-2 2-2 1-1 2-2 1-1h1v-1h1l1-1h1l-1 1h-1v1l-1 1v2l-2 1v1l-2 1v1l-1 1h-1l-1 1-1 1-1 1-2 1-1 1-1 2-2 3-4 4-1 1-1 2-2 2-1 2-1 2-1 1-1 2h-1v1h-1m259-93v-3h1l1-1 1 1v2l-1 1v1h-2m68-100-2-1h-4l-1-2h-1l-1-2-1-1v-1h9l4 1 3 2v-5h1v3l1 2 1 2v2h1v2h-7l-1-1m-42-10h-1v-1l1-1h3v1l-1 1v1h-2m66-66v-2l-1-3v-6h1v6l1 3v1l1 2v3h-1v-2l-1-1m-4-16v-2l-1-2-1-1-1-1v-1l-1-2-1-2-1-4v-8l1-1 2-1 4-2 2-1 4-1h7v1l-1 1h-5l-1 1-2 1h-1l-3 1-3 2-1 1h-1v9l1 1v1l1 1v2l1 1 1 2h1v2l1 1v1l-1 1v1h-1v-1m-15-3v-2h1l1 1 1 1h-1v1h-1v-1m0-5v-1h2v2h-2m45-35-2-1h-1l-2-1v-1h-1v-1h3l2-1h1l1 1 2 1 1 1h3l1 2v1h-5l-1-1m-13-5-1-1h-1l-1-1h1l1-1h1-1v-1l-1-1h-1l-1-1h-2v1h-1v-2l1-1h1v-1h1l3-1h3l1 1v2h1v1l1-1h1v-1l2-1h3l2 1 1 1v1l-1 1-2 1-2 1h-6v2l1 1v1h-2l-1-1m-39-23v-3h2l1 1 1 1v2h-2l-1-1Z"/></svg>