<?xml version="1.0" encoding="UTF-8" standalone="no"?>
<!-- Uploaded to: SVG Repo, www.svgrepo.com, Generator: SVG Repo Mixer Tools -->

<svg
   width="800"
   height="800"
   viewBox="0 0 24 24"
   version="1.1"
   id="svg1"
   xmlns="http://www.w3.org/2000/svg"
   xmlns:svg="http://www.w3.org/2000/svg">
  <defs
     id="defs1" />
  <rect
     style="fill:#000000;stroke-width:0.03"
     id="rect1"
     width="18.054642"
     height="12.371585"
     x="3.1038251"
     y="5.7704916" />
  <path
     fill="#1ed760"
     fill-rule="evenodd"
     d="M 19.09837,10.638279 C 15.230178,8.3411812 8.8500376,8.1298644 5.1572949,9.2505853 4.5643359,9.4306286 3.9372764,9.0958081 3.7575865,8.5028491 3.5778966,7.9095366 3.9123636,7.2828305 4.5058527,7.1026105 8.7445558,5.8159813 15.79098,6.0644021 20.244004,8.7078051 c 0.533415,0.3166218 0.708512,1.0055215 0.392243,1.5378769 -0.316445,0.533416 -1.005698,0.709219 -1.537877,0.392597 m -0.126684,3.402447 C 18.700473,14.481028 18.124652,14.61902 17.68488,14.34869 14.460003,12.366447 9.5426476,11.792217 5.7272848,12.950395 5.2325633,13.099872 4.7099253,12.820884 4.559742,12.327046 4.4106188,11.832325 4.6897831,11.310747 5.1836212,11.16021 9.5419409,9.8377137 14.960025,10.478201 18.663899,12.75445 c 0.439772,0.27086 0.578117,0.846858 0.307787,1.286276 m -1.468263,3.267459 c -0.215734,0.353549 -0.676178,0.464331 -1.02849,0.248951 C 13.65714,15.834798 10.110164,15.445912 5.9331242,16.400018 5.530633,16.492248 5.1293785,16.23994 5.0376783,15.837625 4.9454481,15.435134 5.196696,15.03388 5.6002474,14.942003 10.171297,13.89708 14.092319,14.346747 17.255179,16.279694 c 0.352666,0.215204 0.463801,0.676002 0.248244,1.028491 M 12,0 C 5.3726755,0 0,5.3724988 0,11.999823 0,18.627855 5.3726755,24 12,24 18.627501,24 24,18.627855 24,11.999823 24,5.3724988 18.627501,0 12,0"
     id="path1"
     style="stroke-width:0.99999;stroke-dasharray:none" />
</svg>
